<?xml version="1.0" standalone="no"?>
<!DOCTYPE svg PUBLIC "-//W3C//DTD SVG 1.1//EN" "http://www.w3.org/Graphics/SVG/1.1/DTD/svg11.dtd" >
<svg>
<metadata>
Created by FontForge 20090914 at Mon Jan 22 08:12:20 2018
 By www-data
(C) SoftUnion Ltd., 1994. Created by N.Vsesvetskii.
</metadata>
<defs>
<font id="Luga-Bold" horiz-adv-x="566" >
  <font-face 
    font-family="Luga"
    font-weight="700"
    font-stretch="normal"
    units-per-em="1000"
    panose-1="0 0 0 0 0 0 0 0 0 0"
    ascent="800"
    descent="-200"
    x-height="506"
    cap-height="670"
    bbox="0 -200.002 1099 846"
    underline-thickness="20"
    underline-position="-123"
    unicode-range="U+0020-U+2122"
  />
<missing-glyph horiz-adv-x="800" 
d="M50 0v800h700v-800h-700zM700 50v700h-600v-700h600z" />
    <glyph glyph-name=".notdef" horiz-adv-x="800" 
d="M50 0v800h700v-800h-700zM700 50v700h-600v-700h600z" />
    <glyph glyph-name="space" unicode=" " horiz-adv-x="320" 
 />
    <glyph glyph-name="exclam" unicode="!" horiz-adv-x="260" 
d="M210 223h-160v447h160v-447zM50 0v152h160v-152h-160z" />
    <glyph glyph-name="quotedbl" unicode="&#x22;" horiz-adv-x="382" 
d="M30 670h132v-308h-132v308zM220 670h132v-308h-132v308z" />
    <glyph glyph-name="numbersign" unicode="#" horiz-adv-x="715" 
d="M31 506h137v164h132v-164h114v164h132v-164h139v-132h-139v-78h138v-132h-138v-164h-132v164h-114v-164h-132v164h-138v132h138v78h-137v132zM300 374v-78h114v78h-114z" />
    <glyph glyph-name="dollar" unicode="$" horiz-adv-x="532" 
d="M185 810l139.998 0.000976562v-140h140v-206h-140c0 17.333 -6.33301 32.666 -19 45.999s-27.667 20 -45 20c-16.667 0 -30.667 -5 -42 -15s-17 -21.667 -17 -35c0 -22 20.667 -40.5 62 -55.5l124 -44.5c76 -36 114 -90.333 114 -163
c0 -60 -17.167 -111.167 -51.5 -153.5s-76.166 -63.5 -125.499 -63.5v-140h-140v140h-155v217h155c0 -21.333 7.16699 -39.5 21.5 -54.5s32.5 -22.5 54.5 -22.5c17.333 0 32.333 5 45 15s19 22 19 36c0 24.667 -30.333 47 -91 67c-43.333 14.667 -74.666 27 -93.999 37
c-30.667 15.333 -56.667 41 -78 77s-32 72 -32 108c0 52.667 15 97.5 45 134.5s66.667 55.5 110 55.5v140z" />
    <glyph glyph-name="percent" unicode="%" horiz-adv-x="953" 
d="M656 637l-235 -649l-124 45l235 649zM424 496c0 -51.333 -19.167 -95.166 -57.5 -131.499s-84.833 -54.5 -139.5 -54.5s-101.167 18.167 -139.5 54.5s-57.5 80.166 -57.5 131.499s19.167 95.166 57.5 131.499s84.833 54.5 139.5 54.5s101.167 -18.167 139.5 -54.5
s57.5 -80.166 57.5 -131.499zM308 496c0 22 -7.66699 40.667 -23 56s-34.666 23 -57.999 23c-22 0 -41 -7.66699 -57 -23s-24 -34 -24 -56s7.66699 -40.667 23 -56s34.666 -23 57.999 -23c22 0 41 7.66699 57 23s24 34 24 56zM923 174
c0 -51.333 -19.167 -95.166 -57.5 -131.499s-84.833 -54.5 -139.5 -54.5s-101.167 18.167 -139.5 54.5s-57.5 80.166 -57.5 131.499s19.167 95.166 57.5 131.499s84.833 54.5 139.5 54.5s101.167 -18.167 139.5 -54.5s57.5 -80.166 57.5 -131.499zM807 174
c0 22 -7.66699 40.667 -23 56s-34.666 23 -57.999 23c-22 0 -41 -7.66699 -57 -23s-24 -34 -24 -56s7.66699 -40.667 23 -56s34.666 -23 57.999 -23c22 0 41 7.66699 57 23s24 34 24 56z" />
    <glyph glyph-name="ampersand" unicode="&#x26;" horiz-adv-x="687" 
d="M657 258c-18 0 -35.001 -6.66602 -51.001 -19.999c-10 -8 -25.667 -25.667 -47 -53l86 -88l-111 -109l-68 72c-24 -20.667 -53.167 -37.834 -87.5 -51.501s-69.5 -20.5 -105.5 -20.5c-66 0 -122 17 -168 51c-50 36.667 -75 85 -75 145c0 36 11.667 71.167 35 105.5
s53 62.166 89 83.499c-17.333 14.667 -31.666 35.167 -42.999 61.5s-17 52.833 -17 79.5c0 38 12.667 72.667 38 104c34.667 42.667 86.667 64 156 64c43.333 0 82 -13 116 -39c41.333 -31.333 62 -74.333 62 -129c0 -41.333 -29 -91 -87 -149l66 -71
c10 12.667 21 32.334 33 59.001l21 50h158v-145zM313.999 514.001c0 8 -2.66992 14.667 -8.00293 20s-12.666 8 -21.999 8c-7.33301 0 -14.166 -3.16699 -20.499 -9.5s-9.5 -12.5 -9.5 -18.5c0 -9.33301 2.33301 -18 7 -26s12.334 -16.333 23.001 -25
c20 19.333 30 36.333 30 51zM324.996 170.001l-84 88c-8.66699 0 -16.667 -7.16699 -24 -21.5s-11 -28.5 -11 -42.5c0 -12.667 5.83301 -24.5 17.5 -35.5s26.167 -16.5 43.5 -16.5c14.667 0 26 2.16699 34 6.5s16 11.5 24 21.5z" />
    <glyph glyph-name="quotesingle" unicode="'" horiz-adv-x="220" 
d="M30 518l0.000976562 152h160v-152c0 -42.667 -11.333 -76.667 -34 -102s-51.334 -38 -86.001 -38h-40v68h21c12 0 21.667 3.66699 29 11s11 19 11 35v26h-61z" />
    <glyph glyph-name="parenleft" unicode="(" horiz-adv-x="399" 
d="M30 253c0 96 32.998 188.169 98.998 276.502s146 147.166 240 176.499v-200c-43.333 -16 -80.666 -48.667 -111.999 -98s-47 -101 -47 -155c0 -48 15.333 -96.5 46 -145.5s68.334 -84.833 113.001 -107.5v-200c-94 30 -174 89.167 -240 177.5s-99 180.166 -99 275.499z
" />
    <glyph glyph-name="parenright" unicode=")" horiz-adv-x="399" 
d="M369 253c0 -96.667 -32.832 -188.834 -98.499 -276.501s-145.834 -146.5 -240.501 -176.5v200c44 16 81.5 48.5 112.5 97.5s46.5 100.833 46.5 155.5c0 47.333 -15.5 95.833 -46.5 145.5s-68.5 85.5 -112.5 107.5v200c94 -30 174 -89.167 240 -177.5
s99 -180.166 99 -275.499z" />
    <glyph glyph-name="asterisk" unicode="*" horiz-adv-x="384" 
d="M234 682l-4 -97l83 52l41 -72l-89 -47l89 -47l-41 -73l-83 51l5 -95h-86l5 95l-83 -51l-41 73l89 47l-89 47l41 72l83 -52l-4 97h84z" />
    <glyph glyph-name="plus" unicode="+" horiz-adv-x="606" 
d="M50 319h187v187h132v-187h187v-132h-187v-187h-132v187h-187v132z" />
    <glyph glyph-name="comma" unicode="," horiz-adv-x="260" 
d="M50 0l0.000976562 152h160v-152c0 -42.667 -11.333 -76.667 -34 -102s-51.334 -38 -86.001 -38h-40v68h21c12 0 21.667 3.66699 29 11s11 19 11 35v26h-61z" />
    <glyph glyph-name="hyphen" unicode="-" horiz-adv-x="340" 
d="M320 186h-300v132h300v-132z" />
    <glyph glyph-name="period" unicode="." horiz-adv-x="260" 
d="M50 0v152h160v-152h-160z" />
    <glyph glyph-name="slash" unicode="/" horiz-adv-x="419" 
d="M154 -12l-124 45l235 649l124 -45z" />
    <glyph glyph-name="zero" unicode="0" 
d="M531 434v-198c0 -68.667 -24.167 -127.167 -72.5 -175.5s-106.833 -72.5 -175.5 -72.5s-127.167 24.167 -175.5 72.5s-72.5 106.833 -72.5 175.5v198c0 68.667 24.167 127.167 72.5 175.5s106.833 72.5 175.5 72.5s127.167 -24.167 175.5 -72.5
s72.5 -106.833 72.5 -175.5zM361 230v210c0 21.333 -7.66699 39.666 -23 54.999s-33.666 23 -54.999 23s-39.666 -7.66699 -54.999 -23s-23 -33.666 -23 -54.999v-210c0 -21.333 7.66699 -39.666 23 -54.999s33.666 -23 54.999 -23s39.666 7.66699 54.999 23
s23 33.666 23 54.999z" />
    <glyph glyph-name="one" unicode="1" 
d="M444 0h-306v146h68v394h-78v130h248v-524h68v-146z" />
    <glyph glyph-name="two" unicode="2" 
d="M516 457c0 -40.667 -9.66699 -77.668 -29 -111.001c-15.333 -26 -40 -54.667 -74 -86l-134 -114h80v40l157 1v-187h-472v146l249 220c16.667 16 29.667 31 39 45s14 27.667 14 41c0 18 -6.16699 33.5 -18.5 46.5s-26.833 19.5 -43.5 19.5c-20 0 -37.167 -8.5 -51.5 -25.5
s-21.5 -37.5 -21.5 -61.5h-167v32c0 60.667 23 112.334 69 155.001s102 64 168 64c64.667 0 120 -22 166 -66s69 -97 69 -159z" />
    <glyph glyph-name="three" unicode="3" 
d="M230 289l0.00292969 129.998h47c17.333 0 32.166 6.16699 44.499 18.5s18.5 27.5 18.5 45.5c0 13.333 -5.83301 23.833 -17.5 31.5s-26.834 11.5 -45.501 11.5c-32.667 0 -55 -14.333 -67 -43h-158c0 54.667 22.167 101.5 66.5 140.5s97.166 58.5 158.499 58.5
c56 0 105.333 -13 148 -39c55.333 -34 83 -82 83 -144c0 -30 -6.33301 -58.667 -19 -86s-27.667 -45 -45 -53c24 -10 44.333 -29.667 61 -59s25 -60.666 25 -93.999c0 -57.333 -20.333 -106.666 -61 -147.999c-46.667 -47.333 -110.667 -71 -192 -71
c-66 0 -123.667 20.333 -173 61s-74 89.334 -74 146.001h172c10.667 -34 35.667 -51 75 -51c20 0 37.167 7.16699 51.5 21.5s21.5 31.166 21.5 50.499c0 21.333 -6.83301 38.833 -20.5 52.5s-31.167 20.5 -52.5 20.5h-47z" />
    <glyph glyph-name="four" unicode="4" 
d="M544 184h-90v-38h68v-146h-306v146h68v38h-276v120l258 366h188v-346h90v-140zM284 324v111l-84 -111h84z" />
    <glyph glyph-name="five" unicode="5" 
d="M100 670l380.003 -0.00195312v-140h-243l-12 -80c6 4.66699 17.833 8.66699 35.5 12s37.167 5 58.5 5c63.333 0 115.666 -22.333 156.999 -67s62 -101 62 -169c0 -69.333 -25.5 -127.166 -76.5 -173.499s-113.5 -69.5 -187.5 -69.5c-59.333 0 -113.5 18.833 -162.5 56.5
s-79.5 83.5 -91.5 137.5h170c7.33301 -10.667 18.333 -19.667 33 -27s29.667 -11 45 -11c25.333 0 46.666 9 63.999 27s26 38.667 26 62c0 22.667 -8.66699 41.334 -26 56.001s-38.666 22 -63.999 22c-18.667 0 -36.334 -5.33301 -53.001 -16s-27.334 -23.667 -32.001 -39
l-141 34z" />
    <glyph glyph-name="six" unicode="6" 
d="M545 242c0 -70 -25.832 -129.833 -77.499 -179.5s-113.5 -74.5 -185.5 -74.5c-72.667 0 -134.334 24.667 -185.001 74s-76 109.333 -76 180c0 26 8.33301 60.833 25 104.5s36.667 82.5 60 116.5l140 207h198l-133 -186c68 0 124 -23.667 168 -71s66 -104.333 66 -171z
M365.001 246c0 22.667 -7.99902 42 -23.999 58s-35.667 24 -59 24c-22 0 -41 -8 -57 -24s-24 -35.333 -24 -58s7.66699 -42 23 -58s34.666 -24 57.999 -24s43 8 59 24s24 35.333 24 58z" />
    <glyph glyph-name="seven" unicode="7" 
d="M526 518l-244 -518h-180l244 518h-138v-103h-162v255h480v-152z" />
    <glyph glyph-name="eight" unicode="8" 
d="M535 209c0 -60.667 -24.668 -112.664 -74.001 -155.997s-108.666 -65 -177.999 -65c-70 0 -129.5 21.5 -178.5 64.5s-73.5 95.167 -73.5 156.5c0 35.333 9.33301 68.666 28 99.999s42.667 52.666 72 63.999c-17.333 8.66699 -32.333 25.834 -45 51.501
s-19 50.167 -19 73.5c0 50.667 21 94 63 130s93 54 153 54s111 -17.667 153 -53s63 -79 63 -131c0 -23.333 -6.16699 -47.833 -18.5 -73.5s-27.5 -42.834 -45.5 -51.501c28.667 -11.333 52.5 -32.833 71.5 -64.5s28.5 -64.834 28.5 -99.501zM340.999 486.003
c0 16 -5.66699 29.333 -17 40s-25 16 -41 16s-29.667 -5.33301 -41 -16s-17 -24 -17 -40c0 -15.333 5.5 -28.5 16.5 -39.5s24.833 -16.5 41.5 -16.5c16 0 29.667 5.33301 41 16s17 24 17 40zM354.999 217.003c0 20.667 -7 38 -21 52s-31 21 -51 21s-37 -7 -51 -21
s-21 -31.333 -21 -52c0 -19.333 7 -36 21 -50s31 -21 51 -21s37 7 51 21s21 30.667 21 50z" />
    <glyph glyph-name="nine" unicode="9" 
d="M21 428c0 70 25.832 129.833 77.499 179.5s113.5 74.5 185.5 74.5c72.667 0 134.334 -24.667 185.001 -74s76 -109.333 76 -180c0 -26 -8.33301 -60.833 -25 -104.5s-36.667 -82.5 -60 -116.5l-140 -207h-198l133 186c-68 0 -124 23.667 -168 71s-66 104.333 -66 171z
M200.999 424c0 -22.667 7.99902 -42 23.999 -58s35.667 -24 59 -24c22 0 41 8 57 24s24 35.333 24 58s-7.66699 42 -23 58s-34.666 24 -57.999 24s-43 -8 -59 -24s-24 -35.333 -24 -58z" />
    <glyph glyph-name="colon" unicode=":" horiz-adv-x="260" 
d="M50 194v152h160v-152h-160zM50 0v152h160v-152h-160z" />
    <glyph glyph-name="semicolon" unicode=";" horiz-adv-x="260" 
d="M50 194v152h160v-152h-160zM50 0l0.000976562 152h160v-152c0 -42.667 -11.333 -76.667 -34 -102s-51.334 -38 -86.001 -38h-40v68h21c12 0 21.667 3.66699 29 11s11 19 11 35v26h-61z" />
    <glyph glyph-name="less" unicode="&#x3c;" horiz-adv-x="508" 
d="M153 253l304 -175l-52 -90l-355 205v120l356 205l52 -90z" />
    <glyph glyph-name="equal" unicode="=" horiz-adv-x="606" 
d="M50 84v132h506v-132h-506zM50 288v132h506v-132h-506z" />
    <glyph glyph-name="greater" unicode="&#x3e;" horiz-adv-x="508" 
d="M355 253l-305 175l52 90l356 -205v-120l-355 -205l-52 90z" />
    <glyph glyph-name="question" unicode="?" horiz-adv-x="532" 
d="M197 433l-165.001 0.000976562c-1.33301 6.66699 -2 15.334 -2 26.001c0 62 23.333 114.667 70 158s103.667 65 171 65c64 0 118.5 -21.5 163.5 -64.5s67.5 -94.833 67.5 -155.5c0 -50.667 -25.833 -102.834 -77.5 -156.501s-77.5 -90.5 -77.5 -110.5h-160v20
c0 40 19 80 57 120l74 68c4.66699 6 8.16699 12 10.5 18s3.5 14.667 3.5 26c0 17.333 -6.5 31.833 -19.5 43.5s-28.5 17.5 -46.5 17.5c-19.333 0 -35.666 -7.33301 -48.999 -22s-20 -32.334 -20 -53.001zM186.999 0.000976562v152h160v-152h-160z" />
    <glyph glyph-name="at" unicode="@" horiz-adv-x="941" 
d="M470 -200c-123.333 0 -227.499 43.167 -312.499 129.5s-127.5 190.166 -127.5 311.499c0 122.667 42.5 226.834 127.5 312.501s189.167 128.5 312.5 128.5c122 0 226 -43 312 -129s129 -190 129 -312c0 -54.667 -22 -101.334 -66 -140.001s-97.667 -58 -161 -58
c-32.667 0 -61.834 6.5 -87.501 19.5s-41.5 29.167 -47.5 48.5c-9.33301 -18.667 -28 -34.667 -56 -48s-57 -20 -87 -20c-53.333 0 -97.166 16.167 -131.499 48.5s-51.5 73.833 -51.5 124.5c0 66.667 25.833 124.5 77.5 173.5s111.5 73.5 179.5 73.5
c14.667 0 30.667 -4.5 48 -13.5s32.666 -20.167 45.999 -33.5l10 37h123l-35 -200c-4 -13.333 -6 -30.666 -6 -51.999c0 -20 6.33301 -37.333 19 -52s28 -22 46 -22c26.667 0 49.334 11.667 68.001 35s28 51.666 28 84.999c0 97.333 -34.833 180.166 -104.5 248.499
s-153.834 102.5 -252.501 102.5s-182.667 -34.667 -252 -104s-104 -153.666 -104 -252.999s34.667 -183.666 104 -252.999s153.333 -104 252 -104c48 0 93.5 9.16699 136.5 27.5s81.167 43.833 114.5 76.5h106c-38.667 -57.333 -89.5 -103 -152.5 -137
s-131.167 -51 -204.5 -51zM431.001 155c30.667 0 58 11.333 82 34s36 49 36 79c0 23.333 -7.66699 43 -23 59s-35.666 24 -60.999 24c-30.667 0 -58.334 -12 -83.001 -36s-37 -51.333 -37 -82c0 -22 8.16699 -40.5 24.5 -55.5s36.833 -22.5 61.5 -22.5z" />
    <glyph glyph-name="A" unicode="A" horiz-adv-x="721" 
d="M405 314l-46 141h-4l-44 -141h94zM173 670h266l204 -524h68v-146h-304v128h60l-18 50h-180l-15 -50h60v-128h-304v146h68l155 378h-60v146z" />
    <glyph glyph-name="B" unicode="B" horiz-adv-x="622" 
d="M30 670l321.998 0.000976562c62.667 0 114.834 -17 156.501 -51s62.5 -76 62.5 -126c0 -27.333 -8.83301 -55.5 -26.5 -84.5s-37.5 -47.833 -59.5 -56.5c32.667 -10.667 60.334 -30.5 83.001 -59.5s34 -61.5 34 -97.5c0 -52.667 -21 -98.334 -63 -137.001
s-89.333 -58 -142 -58h-367v146h68v378h-68v146zM281.998 524.001v-106.001h54c16.667 0 31 5.33301 43 16s18 23.334 18 38.001c0 15.333 -5.83301 27.833 -17.5 37.5s-26.167 14.5 -43.5 14.5h-54zM281.998 278v-132h54c22 0 40.167 5.83301 54.5 17.5
s21.5 27.167 21.5 46.5c0 18.667 -7.33301 34.667 -22 48s-32.667 20 -54 20h-54z" />
    <glyph glyph-name="C" unicode="C" horiz-adv-x="741" 
d="M556 670h139.997v-265h-162c-13.333 30.667 -34.666 55.167 -63.999 73.5s-60 27.5 -92 27.5c-48 0 -88.333 -16.667 -121 -50s-49 -74.666 -49 -123.999c0 -48 16 -88 48 -120s72.667 -48 122 -48c30.667 0 59.834 8.16699 87.501 24.5s48.5 38.166 62.5 65.499h197
c-18.667 -68 -52 -124 -100 -168c-37.333 -34.667 -82.666 -60.667 -135.999 -78c-40.667 -13.333 -77.667 -20 -111 -20c-96 0 -179.667 34 -251 102s-107 148.667 -107 242c0 96 35.333 178.333 106 247s154.667 103 252 103c36 0 69.5 -5 100.5 -15
s56.833 -23.667 77.5 -41v44z" />
    <glyph glyph-name="D" unicode="D" horiz-adv-x="720" 
d="M30 670h342c91.333 0 168.833 -32.5 232.5 -97.5s95.5 -146.167 95.5 -243.5c0 -91.333 -32 -169 -96 -233s-141.333 -96 -232 -96h-342v146h68v378h-68v146zM282 514l-0.000976562 -358h77c44.667 0 81.334 15.667 110.001 47s43 73 43 125c0 56 -15 101 -45 135
s-69 51 -117 51h-68z" />
    <glyph glyph-name="E" unicode="E" horiz-adv-x="586" 
d="M30 670h528v-221h-170v65h-106v-90h156v-162h-156v-106h106v77h170v-233h-528v146h68v378h-68v146z" />
    <glyph glyph-name="F" unicode="F" 
d="M30 670h526v-221h-170v65h-104v-90h156v-162h-156v-116h68v-146h-320v146h68v378h-68v146z" />
    <glyph glyph-name="G" unicode="G" horiz-adv-x="737" 
d="M707 0l-146.002 -0.000976562v41c-21.333 -16.667 -48.666 -29.667 -81.999 -39s-67 -14 -101 -14c-96.667 0 -180.5 33.5 -251.5 100.5s-106.5 147.5 -106.5 241.5c0 96.667 35.167 179.5 105.5 248.5s154.5 103.5 252.5 103.5c40 0 77.667 -7.66699 113 -23
c34.667 -19.333 58 -32 70 -38v49h146v-227h-186c-22 22.667 -44.5 38.834 -67.5 48.501s-48.167 14.5 -75.5 14.5c-37.333 0 -72.333 -12.333 -105 -37c-43.333 -32.667 -65 -79 -65 -139c0 -48 16.333 -87.667 49 -119s73 -47 121 -47c31.333 0 60.333 7 87 21
s45.334 30 56.001 48h-180v146h366v-379z" />
    <glyph glyph-name="H" unicode="H" horiz-adv-x="752" 
d="M29 670h320v-146h-68v-100h195v100h-68v146h320v-146h-68v-378h68v-146h-320v146h68v116h-195v-116h68v-146h-320v146h68v378h-68v146z" />
    <glyph glyph-name="I" unicode="I" horiz-adv-x="380" 
d="M350 0h-320v146h68v378h-68v146h320v-146h-68v-378h68v-146z" />
    <glyph glyph-name="J" unicode="J" horiz-adv-x="556" 
d="M216 670h320.001v-146h-68v-318c0 -61.333 -23 -113 -69 -155s-103.333 -63 -172 -63c-63.333 0 -115 21.5 -155 64.5s-60 97.5 -60 163.5h172c0 -18 2.66699 -32.333 8 -43c9.33301 -18 24.666 -27 45.999 -27c13.333 0 24.333 5 33 15s13 21.667 13 35v328h-68v146z
" />
    <glyph glyph-name="K" unicode="K" horiz-adv-x="734" 
d="M716 0h-328v146h40l-146 133v-133h68v-146h-320v146h68v378h-68v146h320v-146h-68v-141l148 141h-42v146h311v-146h-33l-213 -188l213 -190h50v-146z" />
    <glyph glyph-name="L" unicode="L" horiz-adv-x="569" 
d="M30 670h320v-146h-68v-368h105v77h170v-233h-527v146h68v378h-68v146z" />
    <glyph glyph-name="M" unicode="M" horiz-adv-x="918" 
d="M30 670h298l128 -390h6l128 390h298v-146h-68v-378h68v-146h-292v146h62v247l-136 -393h-126l-132 393h-4v-247h62v-146h-292v146h68v378h-68v146z" />
    <glyph glyph-name="N" unicode="N" horiz-adv-x="761" 
d="M30 670h215l248 -357h4v211h-68v146h312v-146h-68v-524h-153l-243 346l-3 -200h68v-146h-312v146h68v378h-68v146z" />
    <glyph glyph-name="O" unicode="O" horiz-adv-x="740" 
d="M728 337c0 -95.333 -35.333 -177.334 -106 -246.001s-154.667 -103 -252 -103c-96 0 -179.667 34.333 -251 103s-107 150.667 -107 246c0 94 35.333 175 106 243s154.667 102 252 102c96.667 0 180.5 -34.167 251.5 -102.5s106.5 -149.166 106.5 -242.499zM540 336.999
c0 47.333 -16.333 87.333 -49 120s-73 49 -121 49c-46.667 0 -86.667 -16.333 -120 -49s-50 -72.667 -50 -120c0 -48.667 16.333 -89.667 49 -123s73 -50 121 -50c47.333 0 87.5 16.833 120.5 50.5s49.5 74.5 49.5 122.5z" />
    <glyph glyph-name="P" unicode="P" horiz-adv-x="610" 
d="M282 208v-62h68v-146h-320v146h68v378h-68v146h289c74.667 0 139.167 -21.833 193.5 -65.5s81.5 -96.5 81.5 -158.5c0 -76 -25.333 -135.667 -76 -179c-45.333 -39.333 -102.333 -59 -171 -59h-65zM282 514v-150h39c24.667 0 45 7 61 21s24 32.667 24 56
c0 22.667 -8 40.5 -24 53.5s-36.333 19.5 -61 19.5h-39z" />
    <glyph glyph-name="Q" unicode="Q" horiz-adv-x="853" 
d="M714 164l129.001 0.000976562v-176c-12 -4 -28.333 -7.66699 -49 -11s-37.667 -5 -51 -5c-38 0 -71.333 6.16699 -100 18.5s-53.334 30.5 -74.001 54.5c-58 -38 -121.667 -57 -191 -57c-96.667 0 -180.5 34.167 -251.5 102.5s-106.5 150.5 -106.5 246.5
c0 95.333 35.333 176.666 106 243.999s154.667 101 252 101c96.667 0 180.5 -33.833 251.5 -101.5s106.5 -148.834 106.5 -243.501c0 -30.667 -6.83301 -64.667 -20.5 -102s-28.5 -66.666 -44.5 -87.999c12 -20 26.333 -30 43 -30v47zM548.001 337.001
c0 47.333 -16.332 87.334 -48.999 120.001s-73 49 -121 49c-41.333 0 -77.833 -13.333 -109.5 -40s-51.167 -60 -58.5 -100c16 5.33301 33 9.66602 51 12.999s34 5 48 5c43.333 0 85.166 -10.167 125.499 -30.5s73.833 -48.833 100.5 -85.5c8.66699 23.333 13 46.333 13 69z
M378.002 164.002c10 0 19.6689 0.167969 29.002 0.500977s17 1.16602 23 2.49902c-36.667 47.333 -82.667 71 -138 71c-6.66699 0 -13.667 -0.666992 -21 -2s-16.333 -3.33301 -27 -6c15.333 -20 34.666 -36 57.999 -48s48.666 -18 75.999 -18z" />
    <glyph glyph-name="R" unicode="R" horiz-adv-x="636" 
d="M282 228l-0.00195312 -88h46v-140h-298v146h68v378h-68v146h313c78.667 0 143.834 -22.167 195.501 -66.5s77.5 -99.5 77.5 -165.5c0 -48 -12.167 -89.5 -36.5 -124.5s-56.166 -60.167 -95.499 -75.5l85 -92h57v-146h-188zM281.998 514v-166h58
c25.333 0 46.333 8.66699 63 26s25 38.333 25 63c0 22 -8.33301 40.333 -25 55s-38 22 -64 22h-57z" />
    <glyph glyph-name="S" unicode="S" horiz-adv-x="521" 
d="M344 670l128.999 -0.000976562v-206h-155c0 18.667 -7 35.334 -21 50.001s-28 22 -42 22c-15.333 0 -28.666 -5.66699 -39.999 -17s-17 -24.666 -17 -39.999c0 -26.667 19.833 -47 59.5 -61l119.5 -41c35.333 -18 64.833 -43.5 88.5 -76.5s35.5 -67.167 35.5 -102.5
c0 -60 -19 -109.333 -57 -148c-40.667 -41.333 -95 -62 -163 -62c-12.667 0 -29.667 3.66699 -51 11c-26 9.33301 -46 20.333 -60 33v-32h-137v219h155c0 -22.667 6.83301 -42.5 20.5 -59.5s30.5 -25.5 50.5 -25.5c18 0 32.833 4.5 44.5 13.5s17.5 20.5 17.5 34.5
c0 29.333 -18 51.333 -54 66l-121 44c-38 18.667 -67.5 44.167 -88.5 76.5s-31.5 68.5 -31.5 108.5c0 58.667 20.167 107.5 60.5 146.5s89.5 58.5 147.5 58.5c29.333 0 54 -5 74 -15c13.333 -6.66699 25.333 -16.334 36 -29.001v32z" />
    <glyph glyph-name="T" unicode="T" horiz-adv-x="570" 
d="M10 670h550v-246h-136v90h-54v-368h68v-146h-306v146h68v368h-54v-90h-136v246z" />
    <glyph glyph-name="U" unicode="U" horiz-adv-x="681" 
d="M16 670h302v-146h-54v-281c0 -25.333 7.83301 -46.5 23.5 -63.5s35.167 -25.5 58.5 -25.5c22 0 40.5 8.5 55.5 25.5s22.5 38.167 22.5 63.5v281h-54v146h295v-146h-68v-316c0 -62.667 -24 -115 -72 -157s-107 -63 -177 -63c-72 0 -134 21 -186 63s-78 94 -78 156v317h-68
v146z" />
    <glyph glyph-name="V" unicode="V" horiz-adv-x="722" 
d="M10 670h319v-146h-52l84 -262l93 262h-52v146h310v-146h-68l-192 -524h-182l-192 524h-68v146z" />
    <glyph glyph-name="W" unicode="W" horiz-adv-x="966" 
d="M16 670h304v-146h-68l52 -224l106 370h146l106 -370l52 224h-68v146h304v-146h-68l-142 -524h-152l-105 358l-105 -358h-152l-142 524h-68v146z" />
    <glyph glyph-name="X" unicode="X" horiz-adv-x="726" 
d="M26 670h307v-146h-38l67 -68l55 68h-38v146h321v-146h-74l-159 -191l170 -187h63v-146h-314v146h36l-60 65l-63 -65h33v-146h-306v146h50l172 188l-174 190h-48v146z" />
    <glyph glyph-name="Y" unicode="Y" horiz-adv-x="630" 
d="M470 0h-310v146h68v64l-168 314h-50v146h278v-146h-38l65 -131l65 131h-38v146h278v-146h-50l-168 -314v-64h68v-146z" />
    <glyph glyph-name="Z" unicode="Z" horiz-adv-x="562" 
d="M538 0h-518v130l294 394h-112v-86h-164v232h486v-136l-290 -388h140v86h164v-232z" />
    <glyph glyph-name="bracketleft" unicode="[" horiz-adv-x="339" 
d="M30 -188v858h279v-146h-105v-566h105v-146h-279z" />
    <glyph glyph-name="backslash" unicode="\" horiz-adv-x="419" 
d="M264 -12l-235 649l124 45l235 -649z" />
    <glyph glyph-name="bracketright" unicode="]" horiz-adv-x="339" 
d="M309 -188h-279v140h105v578h-105v140h279v-858z" />
    <glyph glyph-name="asciicircum" unicode="^" horiz-adv-x="426" 
d="M30 312l119 194h128l119 -194h-140l-43 108l-43 -108h-140z" />
    <glyph glyph-name="underscore" unicode="_" horiz-adv-x="686" 
d="M686 -188h-686v132h686v-132z" />
    <glyph glyph-name="grave" unicode="`" horiz-adv-x="220" 
d="M190 682l-0.000976562 -68h-21c-12 0 -21.667 -3.66699 -29 -11s-11 -19 -11 -35v-26h61v-152h-160v152c0 42.667 11.333 76.667 34 102s51.334 38 86.001 38h40z" />
    <glyph glyph-name="a" unicode="a" horiz-adv-x="654" 
d="M624 0h-214v40c-14 -14 -33 -26.167 -57 -36.5s-46.333 -15.5 -67 -15.5c-74 0 -136.833 25.833 -188.5 77.5s-77.5 114.167 -77.5 187.5c0 72.667 26 135 78 187s114.667 78 188 78c20 0 42 -5 66 -15s43.333 -22.333 58 -37v40h214v-146h-52v-214h52v-146zM410 253
c0 31.333 -10.667 58 -32 80s-48 33 -80 33c-30.667 0 -57 -11 -79 -33s-33 -48.667 -33 -80s10.667 -58 32 -80s48 -33 80 -33c30.667 0 57 11 79 33s33 48.667 33 80z" />
    <glyph glyph-name="b" unicode="b" horiz-adv-x="654" 
d="M30 670h214v-204c14 14 33 26.167 57 36.5s46.333 15.5 67 15.5c74 0 136.833 -25.833 188.5 -77.5s77.5 -114.167 77.5 -187.5c0 -72.667 -26 -135 -78 -187s-114.667 -78 -188 -78c-20 0 -42 5 -66 15s-43.333 22.333 -58 37l-6 9v-49h-208v146h52v378h-52v146z
M468 253c0 31.333 -10.667 58 -32 80s-48 33 -80 33c-30.667 0 -57 -11 -79 -33s-33 -48.667 -33 -80s10.667 -58 32 -80s48 -33 80 -33c30.667 0 57 11 79 33s33 48.667 33 80z" />
    <glyph glyph-name="c" unicode="c" horiz-adv-x="578" 
d="M406 506h132.002v-180h-141c-8 10.667 -21.667 20 -41 28s-38.666 12 -57.999 12c-30.667 0 -57 -11 -79 -33s-33 -48.667 -33 -80s10.667 -58 32 -80s48 -33 80 -33c21.333 0 41.333 5 60 15s32 22.667 40 38h164c-12.667 -56.667 -45.334 -105 -98.001 -145
s-109.334 -60 -170.001 -60c-76 0 -140.667 25.667 -194 77s-80 114 -80 188c0 72.667 25 135 75 187s110.333 78 181 78c26.667 0 52.167 -5 76.5 -15s42.166 -22.333 53.499 -37v40z" />
    <glyph glyph-name="d" unicode="d" horiz-adv-x="648" 
d="M624 0h-208v46l-6 -6c-14 -14 -33 -26.167 -57 -36.5s-46.333 -15.5 -67 -15.5c-74 0 -136.833 25.833 -188.5 77.5s-77.5 114.167 -77.5 187.5c0 72.667 26 135 78 187s114.667 78 188 78c20 0 42 -5 66 -15s43.333 -22.333 58 -37v58h-52v146h214v-524h52v-146z
M410 253c0 31.333 -10.667 58 -32 80s-48 33 -80 33c-30.667 0 -57 -11 -79 -33s-33 -48.667 -33 -80s10.667 -58 32 -80s48 -33 80 -33c30.667 0 57 11 79 33s33 48.667 33 80z" />
    <glyph glyph-name="e" unicode="e" horiz-adv-x="596" 
d="M298 134c20.667 0 39.167 3.00098 55.5 9.00098s26.5 14 30.5 24h176c-19.333 -52 -53 -94.833 -101 -128.5s-101.667 -50.5 -161 -50.5c-80 0 -146.333 25.667 -199 77s-79 114 -79 188c0 73.333 26.5 135.833 79.5 187.5s119.167 77.5 198.5 77.5
c76.667 0 142.167 -25.833 196.5 -77.5s81.5 -114.167 81.5 -187.5c0 -10 -0.333008 -18 -1 -24s-2 -14.667 -4 -26h-374c4.66699 -18.667 17.667 -34.834 39 -48.501s42 -20.5 62 -20.5zM298 372.001c-17.333 0 -34.833 -4.33301 -52.5 -13s-30.5 -22 -38.5 -40h182
c-5.33301 14.667 -16.833 27.167 -34.5 37.5s-36.5 15.5 -56.5 15.5z" />
    <glyph glyph-name="f" unicode="f" horiz-adv-x="330" 
d="M82 146l-0.000976562 214.001h-52v146h52v47c0 37.333 15.667 68.166 47 92.499s65.333 36.5 102 36.5h81v-130h-32c-15.333 0 -25.166 -1 -29.499 -3s-6.5 -9.66699 -6.5 -23v-20h52v-146h-52v-214h52v-146h-266v146h52z" />
    <glyph glyph-name="g" unicode="g" horiz-adv-x="644" 
d="M231 -30c16.667 -20 44.666 -30 83.999 -30c26 0 48.333 7.66699 67 23s28 34 28 56v21c-14 -14 -33 -26.167 -57 -36.5s-46.333 -15.5 -67 -15.5c-74 0 -136.833 25.833 -188.5 77.5s-77.5 114.167 -77.5 187.5c0 72.667 26 135 78 187s114.667 78 188 78
c20 0 42 -5 66 -15s43.333 -22.333 58 -37l6 -4v44h208v-146h-52v-322c0 -66 -24.833 -122.167 -74.5 -168.5s-110.834 -69.5 -183.501 -69.5c-73.333 0 -133.166 15.833 -179.499 47.5s-75.166 72.5 -86.499 122.5h183zM409.999 253c0 31.333 -10.667 58 -32 80
s-48 33 -80 33c-30.667 0 -57 -11 -79 -33s-33 -48.667 -33 -80s10.667 -58 32 -80s48 -33 80 -33c30.667 0 57 11 79 33s33 48.667 33 80z" />
    <glyph glyph-name="h" unicode="h" horiz-adv-x="636" 
d="M616 0h-214v289c0 22 -7.33301 40.333 -22 55s-33 22 -55 22s-41 -7.33301 -57 -22s-24 -33 -24 -55v-143h52v-146h-266v146h52v378h-52v146h214v-204c12.667 14.667 31.834 27 57.501 37s50.167 15 73.5 15c53.333 0 98.166 -19.167 134.499 -57.5
s54.5 -85.833 54.5 -142.5v-172h52v-146z" />
    <glyph glyph-name="i" unicode="i" horiz-adv-x="316" 
d="M82 530v140h162v-140h-162zM296 0h-266v146h52v214h-52v146h214v-360h52v-146z" />
    <glyph glyph-name="j" unicode="j" horiz-adv-x="291" 
d="M83 530v140h162v-140h-162zM31 506h214.001v-506c0 -58 -17 -104.667 -51 -140c-38.667 -40 -82 -60 -130 -60h-50v124c19.333 0 35.666 7.33301 48.999 22s20 32.667 20 54v360h-52v146z" />
    <glyph glyph-name="k" unicode="k" horiz-adv-x="582" 
d="M30 670h214v-382l80 72h-41v146h274v-146h-43l-109 -107l111 -107h56v-146h-156l-172 212v-212h-214v146h52v378h-52v146z" />
    <glyph glyph-name="l" unicode="l" horiz-adv-x="316" 
d="M30 670h214v-524h52v-146h-266v146h52v378h-52v146z" />
    <glyph glyph-name="m" unicode="m" horiz-adv-x="956" 
d="M936 0h-214.004v289c0 21.333 -7.5 39.5 -22.5 54.5s-33.5 22.5 -55.5 22.5c-20.667 0 -39.167 -6.16699 -55.5 -18.5s-24.5 -27.5 -24.5 -45.5v-156h52v-146h-214v302c0 18 -7.66699 33.167 -23 45.5s-33.333 18.5 -54 18.5c-22 0 -41 -7.33301 -57 -22s-24 -33 -24 -55
v-143h52v-146h-266v146h52v214h-52v146h208v-45l6 5c12.667 14.667 31.834 27 57.501 37s50.167 15 73.5 15c30.667 0 58.834 -6.5 84.501 -19.5s47.834 -31.833 66.501 -56.5c12.667 21.333 35.334 39.333 68.001 54s66 22 100 22c53.333 0 98.333 -19.333 135 -58
s55 -86 55 -142v-172h52v-146z" />
    <glyph glyph-name="n" unicode="n" horiz-adv-x="640" 
d="M616 0h-214v289c0 22 -7.33301 40.333 -22 55s-33 22 -55 22s-41 -7.33301 -57 -22s-24 -33 -24 -55v-143h52v-146h-266v146h52v214h-52v146h208v-49l6 9c12.667 14.667 31.834 27 57.501 37s50.167 15 73.5 15c53.333 0 98.166 -19.167 134.499 -57.5
s54.5 -85.833 54.5 -142.5v-172h52v-146z" />
    <glyph glyph-name="o" unicode="o" horiz-adv-x="596" 
d="M576 253c0 -72.667 -27.333 -135 -82 -187s-120 -78 -196 -78c-80 0 -146.333 25.667 -199 77s-79 114 -79 188c0 73.333 26.5 135.833 79.5 187.5s119.167 77.5 198.5 77.5c76.667 0 142.167 -25.833 196.5 -77.5s81.5 -114.167 81.5 -187.5zM410 253
c0 31.333 -10.667 58 -32 80s-48 33 -80 33c-30.667 0 -57 -11 -79 -33s-33 -48.667 -33 -80s10.667 -58 32 -80s48 -33 80 -33c30.667 0 57 11 79 33s33 48.667 33 80z" />
    <glyph glyph-name="p" unicode="p" horiz-adv-x="654" 
d="M82 -28v388h-52v146h208v-50l6 10c14 14 33 26.167 57 36.5s46.333 15.5 67 15.5c74 0 136.833 -25.833 188.5 -77.5s77.5 -114.167 77.5 -187.5c0 -72.667 -26 -135 -78 -187s-114.667 -78 -188 -78c-20 0 -42 5 -66 15s-43.333 22.333 -58 37v-68h52v-146h-266v146h52z
M468 253c0 31.333 -10.667 58 -32 80s-48 33 -80 33c-30.667 0 -57 -11 -79 -33s-33 -48.667 -33 -80s10.667 -58 32 -80s48 -33 80 -33c30.667 0 57 11 79 33s33 48.667 33 80z" />
    <glyph glyph-name="q" unicode="q" horiz-adv-x="648" 
d="M572 360v-388h52v-146h-266v146h52v68c-14 -14 -33 -26.167 -57 -36.5s-46.333 -15.5 -67 -15.5c-74 0 -136.833 25.833 -188.5 77.5s-77.5 114.167 -77.5 187.5c0 72.667 26 135 78 187s114.667 78 188 78c20 0 42 -5 66 -15s43.333 -22.333 58 -37l6 -10v50h208v-146
h-52zM410 253c0 31.333 -10.667 58 -32 80s-48 33 -80 33c-30.667 0 -57 -11 -79 -33s-33 -48.667 -33 -80s10.667 -58 32 -80s48 -33 80 -33c30.667 0 57 11 79 33s33 48.667 33 80z" />
    <glyph glyph-name="r" unicode="r" horiz-adv-x="390" 
d="M378 518v-152h-24c-30 0 -55.833 -12.167 -77.5 -36.5s-32.5 -53.5 -32.5 -87.5v-96h52v-146h-266v146h52v214h-52v146h206v-43c11.333 14.667 28.333 27.5 51 38.5s45 16.5 67 16.5h24z" />
    <glyph glyph-name="s" unicode="s" horiz-adv-x="466" 
d="M20 0l0.00585938 167.996h138c9.33301 -24.667 17.666 -40.667 24.999 -48c11.333 -10.667 29.333 -16 54 -16c11.333 0 20.666 3.33301 27.999 10s11 15.334 11 26.001c0 19.333 -25 36 -75 50c-36 10 -62.333 18.667 -79 26c-36 16 -62 34.833 -78 56.5
s-24 51.5 -24 89.5c0 42.667 17.667 79.334 53 110.001s77.666 46 126.999 46c19.333 0 39.166 -3.16699 59.499 -9.5s37.166 -15.166 50.499 -26.499v24h118v-144h-152c-5.33301 17.333 -11.333 28.333 -18 33s-16 7 -28 7c-6.66699 0 -13.334 -3 -20.001 -9
s-10 -12.667 -10 -20c0 -12.667 9.33301 -23 28 -31l129 -41c27.333 -11.333 50.333 -30.666 69 -57.999s28 -55.666 28 -84.999c0 -46.667 -19 -86.667 -57 -120s-83.667 -50 -137 -50c-28 0 -49.833 2.66699 -65.5 8s-34.5 14.666 -56.5 27.999v-24h-118z" />
    <glyph glyph-name="t" unicode="t" horiz-adv-x="340" 
d="M314 366h-68v-220h52v-146h-214v366h-68v140h68v164h162v-164h68v-140z" />
    <glyph glyph-name="u" unicode="u" horiz-adv-x="626" 
d="M606 0h-207.999v40c-22 -20.667 -41.833 -34.5 -59.5 -41.5s-40.167 -10.5 -67.5 -10.5c-42.667 0 -82.334 12.333 -119.001 37c-50.667 34 -76 84.333 -76 151v184h-52v146h214v-290c0 -21.333 7.33301 -39.333 22 -54s33 -22 55 -22c21.333 0 39.5 7.16699 54.5 21.5
s22.5 32.5 22.5 54.5v144h-52v146h214v-360h52v-146z" />
    <glyph glyph-name="v" unicode="v" horiz-adv-x="556" 
d="M12 506h248v-146h-32l50 -164l50 164h-32v146h248v-146h-52l-139 -360h-154l-135 360h-52v146z" />
    <glyph glyph-name="w" unicode="w" horiz-adv-x="808" 
d="M12 506h242v-146h-44l37 -132l89 278h126l82 -265l38 119h-38v146h252v-146h-52l-127 -360h-4h-145l-74 241l-90 -241h-140l-100 360h-52v146z" />
    <glyph glyph-name="x" unicode="x" horiz-adv-x="600" 
d="M574 0h-232v108l-42 44l-42 -44v-108h-232v146h42l113 107l-113 107h-42v146h232v-108l42 -46l42 46v108h232v-146h-42l-113 -107l113 -107h42v-146z" />
    <glyph glyph-name="y" unicode="y" horiz-adv-x="560" 
d="M12 506h248v-146h-32l50 -164l50 164h-32v146h252v-146h-52l-155 -388h52v-146h-279v146h75l10 28l-135 360h-52v146z" />
    <glyph glyph-name="z" unicode="z" horiz-adv-x="485" 
d="M28 506h420v-136l-212 -224h87v34h138v-180h-441v122l234 238h-88v-34h-138v180z" />
    <glyph glyph-name="braceleft" unicode="{" horiz-adv-x="444" 
d="M135 -26l0.000976562 135.998c0 19.333 -7 36.333 -21 51s-31 22 -51 22h-33v140h33c20 0 37 6.66699 51 20s21 30.333 21 51v114c0 42.667 18.333 82.334 55 119.001s76.334 55 119.001 55h105v-140h-33c-20 0 -37 -7 -51 -21s-21 -31 -21 -51v-147
c0 -15.333 -6.83301 -29.666 -20.5 -42.999s-30.834 -22.333 -51.501 -27c21.333 -6 38.666 -15.333 51.999 -28s20 -26.667 20 -42v-171c0 -20 7 -37 21 -51s31 -21 51 -21h33v-140h-105c-48 0 -89 17 -123 51s-51 75 -51 123z" />
    <glyph glyph-name="bar" unicode="|" horiz-adv-x="300" 
d="M70 670h160v-844h-160v844z" />
    <glyph glyph-name="braceright" unicode="}" horiz-adv-x="444" 
d="M309 -26c0 -48 -17.001 -89.002 -51.001 -123.002s-75 -51 -123 -51h-105v140h33c20 0 37 7 51 21s21 31 21 51v171c0 15.333 6.5 29.333 19.5 42s30.5 22 52.5 28c-21.333 4.66699 -38.666 13.334 -51.999 26.001s-20 27.334 -20 44.001v147c0 20 -7 37 -21 51
s-31 21 -51 21h-33v140h105c42 0 81.5 -18.5 118.5 -55.5s55.5 -76.5 55.5 -118.5v-114c0 -19.333 7 -36 21 -50s31 -21 51 -21h33v-140h-33c-20 0 -37 -7 -51 -21s-21 -31.333 -21 -52v-136z" />
    <glyph glyph-name="asciitilde" unicode="~" horiz-adv-x="463" 
d="M391 356l41.9971 -132c-7.33301 -18 -21.166 -33.333 -41.499 -46s-41.5 -19 -63.5 -19c-19.333 0 -48.666 9 -87.999 27s-64.333 27 -75 27c-19.333 0 -36.166 -3.5 -50.499 -10.5s-28.5 -21.5 -42.5 -43.5l-42 132c7.33301 18 22.5 33.333 45.5 46s47.167 19 72.5 19
c13.333 0 43.666 -9.66699 90.999 -29c22.667 -9.33301 40.334 -14 53.001 -14c22 0 42.5 4 61.5 12s31.5 18.333 37.5 31z" />
    <glyph glyph-name="nonbreakingspace" unicode="&#xa0;" horiz-adv-x="500" 
 />
    <glyph glyph-name="exclamdown" unicode="&#xa1;" horiz-adv-x="260" 
d="M210 -174h-160v433h160v-433zM50 354v152h160v-152h-160z" />
    <glyph glyph-name="exclamdown" unicode="&#x40e;" horiz-adv-x="260" 
d="M210 -174h-160v433h160v-433zM50 354v152h160v-152h-160z" />
    <glyph glyph-name="cent" unicode="&#xa2;" horiz-adv-x="583" 
d="M222 670l131.997 -0.000976562v-157c11.333 -4 22.333 -11 33 -21c6.66699 -6 14.334 -14.667 23.001 -26v40h133v-180h-154c-7.33301 9.33301 -19.166 17.333 -35.499 24s-32.833 10 -49.5 10c-30.667 0 -57 -10.333 -79 -31s-33 -46 -33 -76s10.667 -55.333 32 -76
s48 -31 80 -31c20 0 38.833 4.33301 56.5 13s29.834 20 36.501 34h166c-10.667 -47.333 -35.5 -89.333 -74.5 -126s-83.833 -61 -134.5 -73v-134h-132v134c-56.667 16 -103.5 48.167 -140.5 96.5s-55.5 102.5 -55.5 162.5c0 63.333 18.5 119.333 55.5 168
s83.833 79.334 140.5 92.001v157z" />
    <glyph glyph-name="cent" unicode="&#x45e;" horiz-adv-x="583" 
d="M222 670l131.997 -0.000976562v-157c11.333 -4 22.333 -11 33 -21c6.66699 -6 14.334 -14.667 23.001 -26v40h133v-180h-154c-7.33301 9.33301 -19.166 17.333 -35.499 24s-32.833 10 -49.5 10c-30.667 0 -57 -10.333 -79 -31s-33 -46 -33 -76s10.667 -55.333 32 -76
s48 -31 80 -31c20 0 38.833 4.33301 56.5 13s29.834 20 36.501 34h166c-10.667 -47.333 -35.5 -89.333 -74.5 -126s-83.833 -61 -134.5 -73v-134h-132v134c-56.667 16 -103.5 48.167 -140.5 96.5s-55.5 102.5 -55.5 162.5c0 63.333 18.5 119.333 55.5 168
s83.833 79.334 140.5 92.001v157z" />
    <glyph glyph-name="sterling" unicode="&#xa3;" horiz-adv-x="654" 
d="M77 0l0.00195312 135.998h63c19.333 0 34.5 4.5 45.5 13.5s16.5 20.5 16.5 34.5c0 26.667 -15.667 49.667 -47 69h-125v132h56c-5.33301 10.667 -10.333 24.167 -15 40.5s-7 29.5 -7 39.5c0 60 23.5 111.167 70.5 153.5s104.167 63.5 171.5 63.5
c14.667 0 31.5 -5.16699 50.5 -15.5s34.167 -22.5 45.5 -36.5v40h148v-204h-148c0 18 -6.83301 33.167 -20.5 45.5s-32.167 18.5 -55.5 18.5c-21.333 0 -40.333 -6.5 -57 -19.5s-25 -29.167 -25 -48.5c0 -14 4.16699 -28.333 12.5 -43s19.166 -26 32.499 -34h147v-132h-70
c2.66699 -3.33301 5 -10.166 7 -20.499s3 -20.833 3 -31.5c0 -10 -2.33301 -21.333 -7 -34s-10.334 -23 -17.001 -31h45c21.333 0 39.5 6 54.5 18s22.5 26.667 22.5 44c0 6 -0.666992 13.5 -2 22.5s-2.66602 15.833 -3.99902 20.5h149c0.666992 -5.33301 2 -12.5 4 -21.5
s3 -22.167 3 -39.5c0 -47.333 -20.833 -89.166 -62.5 -125.499s-87.834 -54.5 -138.501 -54.5h-346z" />
    <glyph glyph-name="sterling" unicode="&#x408;" horiz-adv-x="654" 
d="M77 0l0.00195312 135.998h63c19.333 0 34.5 4.5 45.5 13.5s16.5 20.5 16.5 34.5c0 26.667 -15.667 49.667 -47 69h-125v132h56c-5.33301 10.667 -10.333 24.167 -15 40.5s-7 29.5 -7 39.5c0 60 23.5 111.167 70.5 153.5s104.167 63.5 171.5 63.5
c14.667 0 31.5 -5.16699 50.5 -15.5s34.167 -22.5 45.5 -36.5v40h148v-204h-148c0 18 -6.83301 33.167 -20.5 45.5s-32.167 18.5 -55.5 18.5c-21.333 0 -40.333 -6.5 -57 -19.5s-25 -29.167 -25 -48.5c0 -14 4.16699 -28.333 12.5 -43s19.166 -26 32.499 -34h147v-132h-70
c2.66699 -3.33301 5 -10.166 7 -20.499s3 -20.833 3 -31.5c0 -10 -2.33301 -21.333 -7 -34s-10.334 -23 -17.001 -31h45c21.333 0 39.5 6 54.5 18s22.5 26.667 22.5 44c0 6 -0.666992 13.5 -2 22.5s-2.66602 15.833 -3.99902 20.5h149c0.666992 -5.33301 2 -12.5 4 -21.5
s3 -22.167 3 -39.5c0 -47.333 -20.833 -89.166 -62.5 -125.499s-87.834 -54.5 -138.501 -54.5h-346z" />
    <glyph glyph-name="currency" unicode="&#xa4;" horiz-adv-x="604" 
d="M36 82l68 68c-18 32.667 -27 67 -27 103c0 18 2.33301 35.833 7 53.5s11.667 34.834 21 51.501l-63 66l94 94l65 -68c31.333 16.667 65 25 101 25c36.667 0 71 -8.33301 103 -25l69 68l94 -94l-68 -67c18 -34 27 -68.667 27 -104c0 -18 -2.33301 -35.833 -7 -53.5
s-11.667 -34.834 -21 -51.501l65 -66l-94 -94l-67 68c-31.333 -16.667 -65 -25 -101 -25c-18 0 -35.667 2.16699 -53 6.5s-34 10.833 -50 19.5l-69 -69zM302 343c-26 0 -48 -8.66699 -66 -26s-27 -38.666 -27 -63.999s9 -46.666 27 -63.999s40 -26 66 -26s48 8.66699 66 26
s27 38.666 27 63.999s-9 46.666 -27 63.999s-40 26 -66 26z" />
    <glyph glyph-name="yen" unicode="&#xa5;" horiz-adv-x="720" 
d="M670 209h-217v-63h68v-146h-310v146h68v63h-229v116h177l-18 32h-159v116h93l-32 51h-60v146h288v-146h-44l28 -51h86l28 51h-44v146h277v-146h-60l-30 -51h90v-116h-152l-17 -32h169v-116z" />
    <glyph glyph-name="yen" unicode="&#x490;" horiz-adv-x="720" 
d="M670 209h-217v-63h68v-146h-310v146h68v63h-229v116h177l-18 32h-159v116h93l-32 51h-60v146h288v-146h-44l28 -51h86l28 51h-44v146h277v-146h-60l-30 -51h90v-116h-152l-17 -32h169v-116z" />
    <glyph glyph-name="brokenbar" unicode="&#xa6;" horiz-adv-x="260" 
d="M210 323h-160v347h160v-347zM210 -174h-160v357h160v-357z" />
    <glyph glyph-name="section" unicode="&#xa7;" horiz-adv-x="534" 
d="M484 158c0 -46.667 -18.9971 -86.6699 -56.9971 -120.003s-83.667 -50 -137 -50c-27.333 0 -49.333 2.66699 -66 8s-35.667 14.666 -57 27.999v-24h-117v156h138c2.66699 -14 11.834 -26.167 27.501 -36.5s32.834 -15.5 51.501 -15.5c11.333 0 20.666 3.33301 27.999 10
s11 15.334 11 26.001c0 19.333 -25 36 -75 50c-36 10 -62.333 18.667 -79 26c-36 16 -62 34.833 -78 56.5s-24 51.5 -24 89.5c0 27.333 7.66699 52.666 23 75.999c-7.33301 10.667 -13 23.334 -17 38.001s-6 31.334 -6 50.001c0 42.667 17.667 79.334 53 110.001
s77.666 46 126.999 46c19.333 0 39.166 -3.16699 59.499 -9.5s37.166 -15.166 50.499 -26.499v24h119v-146h-153c-5.33301 17.333 -11.5 28.666 -18.5 33.999s-16.167 8 -27.5 8c-6.66699 0 -13.334 -3 -20.001 -9s-10 -12.667 -10 -20c0 -12.667 9.33301 -23 28 -31
l129 -41c27.333 -11.333 50.333 -30.666 69 -57.999s28 -55.666 28 -84.999c0 -36.667 -6.66699 -67.334 -20 -92.001c13.333 -23.333 20 -47.333 20 -72zM269.003 292.997c13.333 0 24.666 4.66699 33.999 14s14 21.333 14 36c0 14 -4.66699 26 -14 36
s-20.666 15 -33.999 15c-12.667 0 -23.667 -5 -33 -15s-14 -22 -14 -36s4.5 -25.833 13.5 -35.5s20.167 -14.5 33.5 -14.5z" />
    <glyph glyph-name="dieresis" unicode="&#xa8;" horiz-adv-x="595" 
d="M28 670h528v-221h-170v65h-106v-90h156v-162h-156v-106h106v77h170v-233h-528v146h68v378h-68v146zM114 694v140h166v-140h-166zM333 694v140h166v-140h-166z" />
    <glyph glyph-name="dieresis" unicode="&#x401;" horiz-adv-x="595" 
d="M28 670h528v-221h-170v65h-106v-90h156v-162h-156v-106h106v77h170v-233h-528v146h68v378h-68v146zM114 694v140h166v-140h-166zM333 694v140h166v-140h-166z" />
    <glyph glyph-name="copyright" unicode="&#xa9;" horiz-adv-x="753" 
d="M376 -12c-96 0 -177.667 33.667 -245 101s-101 149.333 -101 246c0 95.333 33.667 177 101 245s149 102 245 102s177.833 -33.833 245.5 -101.5s101.5 -149.5 101.5 -245.5s-33.833 -177.833 -101.5 -245.5s-149.5 -101.5 -245.5 -101.5zM376 52
c78 0 144.665 27.667 199.998 83s83 122 83 200s-27.667 144.667 -83 200s-122 83 -200 83c-77.333 0 -143.666 -27.667 -198.999 -83s-83 -122 -83 -200s27.333 -144.667 82 -200s121.334 -83 200.001 -83zM472.998 506l75.0029 0.000976562v-137h-82
c-8 15.333 -20.5 28.333 -37.5 39s-34.5 16 -52.5 16c-26 0 -48.333 -9.33301 -67 -28s-28 -41 -28 -67c0 -25.333 9.16699 -46.833 27.5 -64.5s40.833 -26.5 67.5 -26.5c17.333 0 34.166 4.16699 50.499 12.5s28.5 19.166 36.5 32.499h98
c-14.667 -50.667 -44.334 -88.334 -89.001 -113.001c-31.333 -17.333 -63.333 -26 -96 -26c-52.667 0 -97.834 17.833 -135.501 53.5s-56.5 79.5 -56.5 131.5c0 52.667 19 97.334 57 134.001s83 55 135 55c20 0 39.333 -2.83301 58 -8.5s31.667 -12.5 39 -20.5v17z" />
    <glyph glyph-name="ordfeminine" unicode="&#xaa;" horiz-adv-x="470" 
d="M420 371l-130.998 -0.000976562v24c-20.667 -20.667 -45.334 -31 -74.001 -31c-46 0 -85 15.333 -117 46s-48 68.334 -48 113.001c0 44 16.167 81.5 48.5 112.5s71.166 46.5 116.499 46.5c12 0 25.333 -3.16699 40 -9.5s26 -13.5 34 -21.5v24h131v-84h-31v-136h31v-84z
M289.002 522.999c0 18.667 -6.66699 34.667 -20 48s-30 20 -50 20c-19.333 0 -35.666 -6.66699 -48.999 -20s-20 -29.333 -20 -48s6.66699 -34.667 20 -48s29.666 -20 48.999 -20s35.833 6.5 49.5 19.5s20.5 29.167 20.5 48.5zM50.002 344.999h370v-92h-370v92z" />
    <glyph glyph-name="ordfeminine" unicode="&#x404;" horiz-adv-x="470" 
d="M420 371l-130.998 -0.000976562v24c-20.667 -20.667 -45.334 -31 -74.001 -31c-46 0 -85 15.333 -117 46s-48 68.334 -48 113.001c0 44 16.167 81.5 48.5 112.5s71.166 46.5 116.499 46.5c12 0 25.333 -3.16699 40 -9.5s26 -13.5 34 -21.5v24h131v-84h-31v-136h31v-84z
M289.002 522.999c0 18.667 -6.66699 34.667 -20 48s-30 20 -50 20c-19.333 0 -35.666 -6.66699 -48.999 -20s-20 -29.333 -20 -48s6.66699 -34.667 20 -48s29.666 -20 48.999 -20s35.833 6.5 49.5 19.5s20.5 29.167 20.5 48.5zM50.002 344.999h370v-92h-370v92z" />
    <glyph glyph-name="guillemotleft" unicode="&#xab;" horiz-adv-x="350" 
d="M320 -12l-130 120v128l130 120v-140l-44 -44l44 -44v-140zM160 -12l-130 120v128l130 120v-140l-44 -44l44 -44v-140z" />
    <glyph glyph-name="logicalnot" unicode="&#xac;" horiz-adv-x="746" 
d="M585 253h-555v132h686v-265h-131v133z" />
    <glyph glyph-name="registered" unicode="&#xae;" horiz-adv-x="753" 
d="M376 -12c-96 0 -177.667 33.667 -245 101s-101 149.333 -101 246c0 95.333 33.667 177 101 245s149 102 245 102s177.833 -33.833 245.5 -101.5s101.5 -149.5 101.5 -245.5s-33.833 -177.833 -101.5 -245.5s-149.5 -101.5 -245.5 -101.5zM376 52
c78 0 144.665 27.667 199.998 83s83 122 83 200s-27.667 144.667 -83 200s-122 83 -200 83c-77.333 0 -143.666 -27.667 -198.999 -83s-83 -122 -83 -200s27.333 -144.667 82 -200s121.334 -83 200.001 -83zM542.998 220l-0.000976562 -76h-98l-83 123v-47h24v-76h-155v76
h36v210h-36v76h163c43.333 0 79 -12 107 -36s42 -53.667 42 -89c0 -26 -6.66699 -48.5 -20 -67.5s-30.666 -32.5 -51.999 -40.5l42 -53h30zM361.997 430l0.000976562 -98.001h29c15.333 0 28.166 4.83301 38.499 14.5s15.5 21.834 15.5 36.501c0 14 -5 25.333 -15 34
s-23 13 -39 13h-29z" />
    <glyph glyph-name="degree" unicode="&#xb0;" horiz-adv-x="302" 
d="M272 561c0 -33.333 -12.833 -61.833 -38.5 -85.5s-53.167 -35.5 -82.5 -35.5c-36.667 0 -66 12 -88 36s-33 52.333 -33 85s12.333 61 37 85s52.667 36 84 36c32 0 60.167 -11.167 84.5 -33.5s36.5 -51.5 36.5 -87.5zM176 561c0 5.33301 -2.5 10.833 -7.5 16.5
s-10.833 8.5 -17.5 8.5c-7.33301 0 -13.333 -2.33301 -18 -7s-7 -10.667 -7 -18c0 -6.66699 2.5 -12.5 7.5 -17.5s10.833 -7.5 17.5 -7.5c7.33301 0 13.333 2.33301 18 7s7 10.667 7 18z" />
    <glyph glyph-name="plusminus" unicode="&#xb1;" 
d="M30 128h189v120h-189v128h189v130h128v-130h189v-128h-189v-120h189v-128h-506v128z" />
    <glyph glyph-name="twosuperior" unicode="&#xb2;" horiz-adv-x="384" 
d="M50 272l0.000976562 84.001l148 129c9.33301 8 17.333 17.833 24 29.5s10 21.5 10 29.5c0 10 -3.66699 19 -11 27s-16.333 12 -27 12c-11.333 0 -21.333 -5.16699 -30 -15.5s-13 -22.5 -13 -36.5h-101v19c0 36 14 67 42 93s61.667 39 101 39s72.666 -13 99.999 -39
s41 -58 41 -96c0 -24.667 -6 -47.334 -18 -68.001c-9.33301 -16.667 -24 -33.667 -44 -51l-81 -72h48v28h95v-112h-284z" />
    <glyph glyph-name="twosuperior" unicode="&#x406;" horiz-adv-x="384" 
d="M50 272l0.000976562 84.001l148 129c9.33301 8 17.333 17.833 24 29.5s10 21.5 10 29.5c0 10 -3.66699 19 -11 27s-16.333 12 -27 12c-11.333 0 -21.333 -5.16699 -30 -15.5s-13 -22.5 -13 -36.5h-101v19c0 36 14 67 42 93s61.667 39 101 39s72.666 -13 99.999 -39
s41 -58 41 -96c0 -24.667 -6 -47.334 -18 -68.001c-9.33301 -16.667 -24 -33.667 -44 -51l-81 -72h48v28h95v-112h-284z" />
    <glyph glyph-name="threesuperior" unicode="&#xb3;" horiz-adv-x="400" 
d="M198 682c34 0 63.666 -7.66504 88.999 -22.998c33.333 -20 50 -49 50 -87c0 -18.667 -3.83301 -35.834 -11.5 -51.501s-16.834 -26.167 -27.501 -31.5c14.667 -6 27 -17.833 37 -35.5s15 -36.5 15 -56.5c0 -34 -12.333 -63.333 -37 -88c-28.667 -28.667 -67 -43 -115 -43
c-39.333 0 -73.833 12.167 -103.5 36.5s-44.5 53.5 -44.5 87.5h103c6.66699 -20.667 21.667 -31 45 -31c12 0 22.333 4.33301 31 13s13 19 13 31c0 12.667 -4.33301 23 -13 31s-19 12 -31 12h-28v78h28c10.667 0 19.667 3.66699 27 11s11 16.666 11 27.999
c0 17.333 -12.667 26 -38 26c-19.333 0 -32.666 -8.66699 -39.999 -26h-95c0 32.667 13.333 60.667 40 84s58.334 35 95.001 35z" />
    <glyph glyph-name="threesuperior" unicode="&#x456;" horiz-adv-x="400" 
d="M198 682c34 0 63.666 -7.66504 88.999 -22.998c33.333 -20 50 -49 50 -87c0 -18.667 -3.83301 -35.834 -11.5 -51.501s-16.834 -26.167 -27.501 -31.5c14.667 -6 27 -17.833 37 -35.5s15 -36.5 15 -56.5c0 -34 -12.333 -63.333 -37 -88c-28.667 -28.667 -67 -43 -115 -43
c-39.333 0 -73.833 12.167 -103.5 36.5s-44.5 53.5 -44.5 87.5h103c6.66699 -20.667 21.667 -31 45 -31c12 0 22.333 4.33301 31 13s13 19 13 31c0 12.667 -4.33301 23 -13 31s-19 12 -31 12h-28v78h28c10.667 0 19.667 3.66699 27 11s11 16.666 11 27.999
c0 17.333 -12.667 26 -38 26c-19.333 0 -32.666 -8.66699 -39.999 -26h-95c0 32.667 13.333 60.667 40 84s58.334 35 95.001 35z" />
    <glyph glyph-name="mu" unicode="&#xb5;" horiz-adv-x="646" 
d="M82 0v360h-52v146h218v-290c0 -21.333 7.33301 -39.333 22 -54s33 -22 55 -22c21.333 0 39.5 7.16699 54.5 21.5s22.5 32.5 22.5 54.5v144h-52v146h218v-360h52v-146h-206v40c-22 -20 -42.667 -33.667 -62 -41s-43 -11 -71 -11c-10 0 -21 2 -33 6
c0 -56.667 -17.333 -102 -52 -136c-39.333 -38.667 -83.666 -58 -132.999 -58h-50v124c19.333 0 35.666 7.33301 48.999 22s20 32.667 20 54z" />
    <glyph glyph-name="paragraph" unicode="&#xb6;" horiz-adv-x="575" 
d="M281 670l0.000976562 -844.001h-186v140h68v508h-41c-30 0 -54.5 8.83301 -73.5 26.5s-28.5 40.834 -28.5 69.501c0 28 9.66699 51.667 29 71s43.666 29 72.999 29h159zM361.001 669.999h194v-140h-76v-564h76v-140h-194v844z" />
    <glyph glyph-name="periodcentered" unicode="&#xb7;" horiz-adv-x="300" 
d="M70 178v152h160v-152h-160z" />
    <glyph glyph-name="periodcentered" unicode="&#x2219;" horiz-adv-x="300" 
d="M70 178v152h160v-152h-160z" />
    <glyph glyph-name="cedilla" unicode="&#xb8;" horiz-adv-x="577" 
d="M80 530v140h162v-140h-162zM350 530v140h162v-140h-162zM296 134c20.667 0 39.167 3.00098 55.5 9.00098s26.5 14 30.5 24h176c-19.333 -52 -53 -94.833 -101 -128.5s-101.667 -50.5 -161 -50.5c-80 0 -146.333 25.667 -199 77s-79 114 -79 188
c0 73.333 26.5 135.833 79.5 187.5s119.167 77.5 198.5 77.5c76.667 0 142.167 -25.833 196.5 -77.5s81.5 -114.167 81.5 -187.5c0 -10 -0.333008 -18 -1 -24s-2 -14.667 -4 -26h-374c4.66699 -18.667 17.667 -34.834 39 -48.501s42 -20.5 62 -20.5zM296 372.001
c-17.333 0 -34.833 -4.33301 -52.5 -13s-30.5 -22 -38.5 -40h182c-5.33301 14.667 -16.833 27.167 -34.5 37.5s-36.5 15.5 -56.5 15.5z" />
    <glyph glyph-name="cedilla" unicode="&#x451;" horiz-adv-x="577" 
d="M80 530v140h162v-140h-162zM350 530v140h162v-140h-162zM296 134c20.667 0 39.167 3.00098 55.5 9.00098s26.5 14 30.5 24h176c-19.333 -52 -53 -94.833 -101 -128.5s-101.667 -50.5 -161 -50.5c-80 0 -146.333 25.667 -199 77s-79 114 -79 188
c0 73.333 26.5 135.833 79.5 187.5s119.167 77.5 198.5 77.5c76.667 0 142.167 -25.833 196.5 -77.5s81.5 -114.167 81.5 -187.5c0 -10 -0.333008 -18 -1 -24s-2 -14.667 -4 -26h-374c4.66699 -18.667 17.667 -34.834 39 -48.501s42 -20.5 62 -20.5zM296 372.001
c-17.333 0 -34.833 -4.33301 -52.5 -13s-30.5 -22 -38.5 -40h182c-5.33301 14.667 -16.833 27.167 -34.5 37.5s-36.5 15.5 -56.5 15.5z" />
    <glyph glyph-name="onesuperior" unicode="&#xb9;" horiz-adv-x="1129" 
d="M30 670h215l248 -357h4v211h-68v146h312v-146h-68v-524h-154l-242 346l-3 -200h68v-146h-312v146h68v378h-68v146zM1086 0h-320v128h320v-128zM1099 347c0 -47.333 -17 -87.666 -51 -120.999s-75 -50 -123 -50c-47.333 0 -88 16.667 -122 50s-51 73.666 -51 120.999
s17 87.666 51 120.999s74.667 50 122 50c48 0 89 -16.667 123 -50s51 -73.666 51 -120.999zM997 347c0 19.333 -7 35.666 -21 48.999s-31 20 -51 20c-19.333 0 -36 -6.66699 -50 -20s-21 -29.666 -21 -48.999s7 -35.666 21 -48.999s30.667 -20 50 -20c20 0 37 6.66699 51 20
s21 29.666 21 48.999z" />
    <glyph glyph-name="onesuperior" unicode="&#x2116;" horiz-adv-x="1129" 
d="M30 670h215l248 -357h4v211h-68v146h312v-146h-68v-524h-154l-242 346l-3 -200h68v-146h-312v146h68v378h-68v146zM1086 0h-320v128h320v-128zM1099 347c0 -47.333 -17 -87.666 -51 -120.999s-75 -50 -123 -50c-47.333 0 -88 16.667 -122 50s-51 73.666 -51 120.999
s17 87.666 51 120.999s74.667 50 122 50c48 0 89 -16.667 123 -50s51 -73.666 51 -120.999zM997 347c0 19.333 -7 35.666 -21 48.999s-31 20 -51 20c-19.333 0 -36 -6.66699 -50 -20s-21 -29.666 -21 -48.999s7 -35.666 21 -48.999s30.667 -20 50 -20c20 0 37 6.66699 51 20
s21 29.666 21 48.999z" />
    <glyph glyph-name="ordmasculine" unicode="&#xba;" horiz-adv-x="440" 
d="M390 523c0 -44 -16.5 -81.5 -49.5 -112.5s-73.167 -46.5 -120.5 -46.5s-87.5 15.333 -120.5 46s-49.5 68.334 -49.5 113.001c0 44 16.5 81.5 49.5 112.5s73.167 46.5 120.5 46.5s87.5 -15.333 120.5 -46s49.5 -68.334 49.5 -113.001zM290 523
c0 18.667 -6.66699 34.667 -20 48s-30 20 -50 20c-18.667 0 -35 -6.66699 -49 -20s-21 -29.333 -21 -48s6.83301 -34.5 20.5 -47.5s30.167 -19.5 49.5 -19.5s35.833 6.5 49.5 19.5s20.5 28.833 20.5 47.5zM50 345h340v-92h-340v92z" />
    <glyph glyph-name="ordmasculine" unicode="&#x454;" horiz-adv-x="440" 
d="M390 523c0 -44 -16.5 -81.5 -49.5 -112.5s-73.167 -46.5 -120.5 -46.5s-87.5 15.333 -120.5 46s-49.5 68.334 -49.5 113.001c0 44 16.5 81.5 49.5 112.5s73.167 46.5 120.5 46.5s87.5 -15.333 120.5 -46s49.5 -68.334 49.5 -113.001zM290 523
c0 18.667 -6.66699 34.667 -20 48s-30 20 -50 20c-18.667 0 -35 -6.66699 -49 -20s-21 -29.333 -21 -48s6.83301 -34.5 20.5 -47.5s30.167 -19.5 49.5 -19.5s35.833 6.5 49.5 19.5s20.5 28.833 20.5 47.5zM50 345h340v-92h-340v92z" />
    <glyph glyph-name="guillemotright" unicode="&#xbb;" horiz-adv-x="350" 
d="M30 -12v140l44 44l-44 44v140l130 -120v-128zM190 -12v140l44 44l-44 44v140l130 -120v-128z" />
    <glyph glyph-name="onequarter" unicode="&#xbc;" horiz-adv-x="798" 
d="M735 0h-184v84h41v26h-166v72l155 220h113v-208h54v-84h-54v-26h41v-84zM592 194v67l-51 -67h51zM313 -12l-124 45l235 649l124 -45zM50 670h149v-318h41v-84h-184v84h41v240h-47v78z" />
    <glyph glyph-name="onequarter" unicode="&#x458;" horiz-adv-x="798" 
d="M735 0h-184v84h41v26h-166v72l155 220h113v-208h54v-84h-54v-26h41v-84zM592 194v67l-51 -67h51zM313 -12l-124 45l235 649l124 -45zM50 670h149v-318h41v-84h-184v84h41v240h-47v78z" />
    <glyph glyph-name="onehalf" unicode="&#xbd;" horiz-adv-x="812" 
d="M477 0l0.000976562 84.001l148 129c9.33301 8 17.333 17.833 24 29.5s10 21.5 10 29.5c0 10 -3.66699 19 -11 27s-16.333 12 -27 12c-11.333 0 -21.333 -5.16699 -30 -15.5s-13 -22.5 -13 -36.5h-101v19c0 36 14 67 42 93s61.667 39 101 39s72.666 -13 99.999 -39
s41 -58 41 -96c0 -24.667 -6 -47.334 -18 -68.001c-9.33301 -16.667 -24 -33.667 -44 -51l-81 -72h48v28h95v-112h-284zM313.001 -11.999l-124 45l235 649l124 -45zM50.001 670.001h149v-318h41v-84h-184v84h41v240h-47v78z" />
    <glyph glyph-name="onehalf" unicode="&#x405;" horiz-adv-x="812" 
d="M477 0l0.000976562 84.001l148 129c9.33301 8 17.333 17.833 24 29.5s10 21.5 10 29.5c0 10 -3.66699 19 -11 27s-16.333 12 -27 12c-11.333 0 -21.333 -5.16699 -30 -15.5s-13 -22.5 -13 -36.5h-101v19c0 36 14 67 42 93s61.667 39 101 39s72.666 -13 99.999 -39
s41 -58 41 -96c0 -24.667 -6 -47.334 -18 -68.001c-9.33301 -16.667 -24 -33.667 -44 -51l-81 -72h48v28h95v-112h-284zM313.001 -11.999l-124 45l235 649l124 -45zM50.001 670.001h149v-318h41v-84h-184v84h41v240h-47v78z" />
    <glyph glyph-name="threequarters" unicode="&#xbe;" horiz-adv-x="881" 
d="M818 0h-184v84h41v26h-166v72l155 220h113v-208h54v-84h-54v-26h41v-84zM675 194v67l-51 -67h51zM396 -12l-124 45l235 649l124 -45zM198 682c34 0 63.666 -7.66504 88.999 -22.998c33.333 -20 50 -49 50 -87c0 -18.667 -3.83301 -35.834 -11.5 -51.501
s-16.834 -26.167 -27.501 -31.5c14.667 -6 27 -17.833 37 -35.5s15 -36.5 15 -56.5c0 -34 -12.333 -63.333 -37 -88c-28.667 -28.667 -67 -43 -115 -43c-39.333 0 -73.833 12.167 -103.5 36.5s-44.5 53.5 -44.5 87.5h103c6.66699 -20.667 21.667 -31 45 -31
c12 0 22.333 4.33301 31 13s13 19 13 31c0 12.667 -4.33301 23 -13 31s-19 12 -31 12h-28v78h28c10.667 0 19.667 3.66699 27 11s11 16.666 11 27.999c0 17.333 -12.667 26 -38 26c-19.333 0 -32.666 -8.66699 -39.999 -26h-95c0 32.667 13.333 60.667 40 84
s58.334 35 95.001 35z" />
    <glyph glyph-name="threequarters" unicode="&#x455;" horiz-adv-x="881" 
d="M818 0h-184v84h41v26h-166v72l155 220h113v-208h54v-84h-54v-26h41v-84zM675 194v67l-51 -67h51zM396 -12l-124 45l235 649l124 -45zM198 682c34 0 63.666 -7.66504 88.999 -22.998c33.333 -20 50 -49 50 -87c0 -18.667 -3.83301 -35.834 -11.5 -51.501
s-16.834 -26.167 -27.501 -31.5c14.667 -6 27 -17.833 37 -35.5s15 -36.5 15 -56.5c0 -34 -12.333 -63.333 -37 -88c-28.667 -28.667 -67 -43 -115 -43c-39.333 0 -73.833 12.167 -103.5 36.5s-44.5 53.5 -44.5 87.5h103c6.66699 -20.667 21.667 -31 45 -31
c12 0 22.333 4.33301 31 13s13 19 13 31c0 12.667 -4.33301 23 -13 31s-19 12 -31 12h-28v78h28c10.667 0 19.667 3.66699 27 11s11 16.666 11 27.999c0 17.333 -12.667 26 -38 26c-19.333 0 -32.666 -8.66699 -39.999 -26h-95c0 32.667 13.333 60.667 40 84
s58.334 35 95.001 35z" />
    <glyph glyph-name="questiondown" unicode="&#xbf;" horiz-adv-x="532" 
d="M343 49l156.999 0.00195312c1.33301 -6.66699 2 -15.334 2 -26.001c0 -62 -23.333 -114.667 -70 -158s-103.667 -65 -171 -65c-64 0 -118.5 21.5 -163.5 64.5s-67.5 94.833 -67.5 155.5c0 39.333 13 76.666 39 111.999c5.33301 6.66699 30 34 74 82
c26.667 28.667 40 53 40 73h160v-20c0 -40.667 -18.667 -80.667 -56 -120l-73 -68c-4.66699 -6 -8.16699 -12 -10.5 -18s-3.5 -14.667 -3.5 -26c0 -19.333 6.33301 -36 19 -50s28.334 -21 47.001 -21c21.333 0 39.5 8.16699 54.5 24.5s22.5 36.5 22.5 60.5zM182.999 354.002
v152h160v-152h-160z" />
    <glyph glyph-name="questiondown" unicode="&#x457;" horiz-adv-x="532" 
d="M343 49l156.999 0.00195312c1.33301 -6.66699 2 -15.334 2 -26.001c0 -62 -23.333 -114.667 -70 -158s-103.667 -65 -171 -65c-64 0 -118.5 21.5 -163.5 64.5s-67.5 94.833 -67.5 155.5c0 39.333 13 76.666 39 111.999c5.33301 6.66699 30 34 74 82
c26.667 28.667 40 53 40 73h160v-20c0 -40.667 -18.667 -80.667 -56 -120l-73 -68c-4.66699 -6 -8.16699 -12 -10.5 -18s-3.5 -14.667 -3.5 -26c0 -19.333 6.33301 -36 19 -50s28.334 -21 47.001 -21c21.333 0 39.5 8.16699 54.5 24.5s22.5 36.5 22.5 60.5zM182.999 354.002
v152h160v-152h-160z" />
    <glyph glyph-name="Agrave" unicode="&#xc0;" horiz-adv-x="721" 
d="M405 314l-46 141h-4l-44 -141h94zM173 670h266l204 -524h68v-146h-304v128h60l-18 50h-180l-15 -50h60v-128h-304v146h68l155 378h-60v146z" />
    <glyph glyph-name="Agrave" unicode="&#x410;" horiz-adv-x="721" 
d="M405 314l-46 141h-4l-44 -141h94zM173 670h266l204 -524h68v-146h-304v128h60l-18 50h-180l-15 -50h60v-128h-304v146h68l155 378h-60v146z" />
    <glyph glyph-name="Aacute" unicode="&#xc1;" horiz-adv-x="600" 
d="M30 670h530.001v-222h-170v70h-118v-100h98c57.333 0 106.666 -21 147.999 -63s62 -91.667 62 -149c0 -56.667 -19 -105.167 -57 -145.5s-84 -60.5 -138 -60.5h-355v146h68v378h-68v146zM272.001 266v-114h64c16.667 0 29.834 5.16699 39.501 15.5s14.5 23.5 14.5 39.5
c0 17.333 -4.83301 31.5 -14.5 42.5s-22.834 16.5 -39.501 16.5h-64z" />
    <glyph glyph-name="Aacute" unicode="&#x411;" horiz-adv-x="600" 
d="M30 670h530.001v-222h-170v70h-118v-100h98c57.333 0 106.666 -21 147.999 -63s62 -91.667 62 -149c0 -56.667 -19 -105.167 -57 -145.5s-84 -60.5 -138 -60.5h-355v146h68v378h-68v146zM272.001 266v-114h64c16.667 0 29.834 5.16699 39.501 15.5s14.5 23.5 14.5 39.5
c0 17.333 -4.83301 31.5 -14.5 42.5s-22.834 16.5 -39.501 16.5h-64z" />
    <glyph glyph-name="Acircumflex" unicode="&#xc2;" horiz-adv-x="622" 
d="M30 670h322c61.333 0 113.166 -17.667 155.499 -53s63.5 -77.666 63.5 -126.999c0 -32.667 -8.33301 -61.5 -25 -86.5s-37 -42.167 -61 -51.5c32.667 -10.667 60.334 -30.5 83.001 -59.5s34 -61.5 34 -97.5c0 -52.667 -21 -98.334 -63 -137.001s-89.333 -58 -142 -58
h-367v146h68v378h-68v146zM282 524v-114h54c16.667 0 31 6 43 18s18 25.333 18 40c0 15.333 -5.83301 28.5 -17.5 39.5s-26.167 16.5 -43.5 16.5h-54zM282 264v-118h54c22 0 40.167 5.5 54.5 16.5s21.5 26.167 21.5 45.5c0 18 -7.16699 31.833 -21.5 41.5
s-32.5 14.5 -54.5 14.5h-54z" />
    <glyph glyph-name="Acircumflex" unicode="&#x412;" horiz-adv-x="622" 
d="M30 670h322c61.333 0 113.166 -17.667 155.499 -53s63.5 -77.666 63.5 -126.999c0 -32.667 -8.33301 -61.5 -25 -86.5s-37 -42.167 -61 -51.5c32.667 -10.667 60.334 -30.5 83.001 -59.5s34 -61.5 34 -97.5c0 -52.667 -21 -98.334 -63 -137.001s-89.333 -58 -142 -58
h-367v146h68v378h-68v146zM282 524v-114h54c16.667 0 31 6 43 18s18 25.333 18 40c0 15.333 -5.83301 28.5 -17.5 39.5s-26.167 16.5 -43.5 16.5h-54zM282 264v-118h54c22 0 40.167 5.5 54.5 16.5s21.5 26.167 21.5 45.5c0 18 -7.16699 31.833 -21.5 41.5
s-32.5 14.5 -54.5 14.5h-54z" />
    <glyph glyph-name="Atilde" unicode="&#xc3;" horiz-adv-x="564" 
d="M30 670h524v-246h-170v90h-102v-368h68v-146h-320v146h68v378h-68v146z" />
    <glyph glyph-name="Atilde" unicode="&#x413;" horiz-adv-x="564" 
d="M30 670h524v-246h-170v90h-102v-368h68v-146h-320v146h68v378h-68v146z" />
    <glyph glyph-name="Adieresis" unicode="&#xc4;" horiz-adv-x="721" 
d="M459 146l-100 309h-4l-93 -309h197zM173 670h266l204 -524h68v-286h-138v140h-425v-140h-138v286h68l155 378h-60v146z" />
    <glyph glyph-name="Adieresis" unicode="&#x414;" horiz-adv-x="721" 
d="M459 146l-100 309h-4l-93 -309h197zM173 670h266l204 -524h68v-286h-138v140h-425v-140h-138v286h68l155 378h-60v146z" />
    <glyph glyph-name="Aring" unicode="&#xc5;" horiz-adv-x="595" 
d="M30 670h528v-221h-170v65h-106v-90h156v-162h-156v-106h106v77h170v-233h-528v146h68v378h-68v146z" />
    <glyph glyph-name="Aring" unicode="&#x415;" horiz-adv-x="595" 
d="M30 670h528v-221h-170v65h-106v-90h156v-162h-156v-106h106v77h170v-233h-528v146h68v378h-68v146z" />
    <glyph glyph-name="AE" unicode="&#xc6;" horiz-adv-x="1072" 
d="M338 0h-328v146h50l213 190l-213 188h-33v146h311v-146h-42l148 -141v141h-68v146h320v-146h-68v-141l148 141h-42v146h311v-146h-33l-213 -188l213 -190h50v-146h-328v146h40l-146 133v-133h68v-146h-320v146h68v133l-146 -133h40v-146z" />
    <glyph glyph-name="AE" unicode="&#x416;" horiz-adv-x="1072" 
d="M338 0h-328v146h50l213 190l-213 188h-33v146h311v-146h-42l148 -141v141h-68v146h320v-146h-68v-141l148 141h-42v146h311v-146h-33l-213 -188l213 -190h50v-146h-328v146h40l-146 133v-133h68v-146h-320v146h68v133l-146 -133h40v-146z" />
    <glyph glyph-name="Ccedilla" unicode="&#xc7;" horiz-adv-x="556" 
d="M30 670l138.004 0.00292969v-40c15.333 14 35.666 26.167 60.999 36.5s47.333 15.5 66 15.5c53.333 0 99 -13 137 -39c48 -33.333 72 -81.333 72 -144c0 -30 -6.33301 -58.667 -19 -86s-27.667 -45 -45 -53c25.333 -10.667 47.666 -30.834 66.999 -60.501
s29 -60.5 29 -92.5c0 -60.667 -23.333 -112.334 -70 -155.001s-103.667 -64 -171 -64c-22.667 0 -46.334 5 -71.001 15s-43.334 22.333 -56.001 37v-40h-138v195h168c5.33301 -16.667 14.333 -30 27 -40s28.667 -15 48 -15s36.333 7 51 21s22 30.667 22 50
c0 15.333 -6 28.333 -18 39s-28 16 -48 16h-87v146h87c16 0 29.333 5.66699 40 17s16 26.666 16 45.999c0 15.333 -5.66699 28.333 -17 39s-25 16 -41 16c-12.667 0 -26.5 -5.5 -41.5 -16.5s-25.167 -23.167 -30.5 -36.5h-176v193z" />
    <glyph glyph-name="Ccedilla" unicode="&#x417;" horiz-adv-x="556" 
d="M30 670l138.004 0.00292969v-40c15.333 14 35.666 26.167 60.999 36.5s47.333 15.5 66 15.5c53.333 0 99 -13 137 -39c48 -33.333 72 -81.333 72 -144c0 -30 -6.33301 -58.667 -19 -86s-27.667 -45 -45 -53c25.333 -10.667 47.666 -30.834 66.999 -60.501
s29 -60.5 29 -92.5c0 -60.667 -23.333 -112.334 -70 -155.001s-103.667 -64 -171 -64c-22.667 0 -46.334 5 -71.001 15s-43.334 22.333 -56.001 37v-40h-138v195h168c5.33301 -16.667 14.333 -30 27 -40s28.667 -15 48 -15s36.333 7 51 21s22 30.667 22 50
c0 15.333 -6 28.333 -18 39s-28 16 -48 16h-87v146h87c16 0 29.333 5.66699 40 17s16 26.666 16 45.999c0 15.333 -5.66699 28.333 -17 39s-25 16 -41 16c-12.667 0 -26.5 -5.5 -41.5 -16.5s-25.167 -23.167 -30.5 -36.5h-176v193z" />
    <glyph glyph-name="Egrave" unicode="&#xc8;" horiz-adv-x="774" 
d="M88 0v524h-68v146h312v-146h-68v-223l255 369h225v-146h-68v-378h68v-146h-312v146h68v211l-253 -357h-159z" />
    <glyph glyph-name="Egrave" unicode="&#x418;" horiz-adv-x="774" 
d="M88 0v524h-68v146h312v-146h-68v-223l255 369h225v-146h-68v-378h68v-146h-312v146h68v211l-253 -357h-159z" />
    <glyph glyph-name="Eacute" unicode="&#xc9;" horiz-adv-x="774" 
d="M88 0v524h-68v146h312v-146h-68v-223l255 369h225v-146h-68v-378h68v-146h-312v146h68v211l-253 -357h-159zM515 846l82.001 -117c-12.667 -10 -28 -18.333 -46 -25s-35 -10 -51 -10c-13.333 0 -31 2.33301 -53 7c-52.667 11.333 -82.334 17 -89.001 17
c-31.333 0 -61.666 -8 -90.999 -24l-73 102c15.333 12.667 35.333 24.167 60 34.5s46.667 15.5 66 15.5c6 0 29.667 -6 71 -18c22.667 -6.66699 39.667 -10 51 -10c12.667 0 24.667 2.5 36 7.5s23.666 11.833 36.999 20.5z" />
    <glyph glyph-name="Eacute" unicode="&#x419;" horiz-adv-x="774" 
d="M88 0v524h-68v146h312v-146h-68v-223l255 369h225v-146h-68v-378h68v-146h-312v146h68v211l-253 -357h-159zM515 846l82.001 -117c-12.667 -10 -28 -18.333 -46 -25s-35 -10 -51 -10c-13.333 0 -31 2.33301 -53 7c-52.667 11.333 -82.334 17 -89.001 17
c-31.333 0 -61.666 -8 -90.999 -24l-73 102c15.333 12.667 35.333 24.167 60 34.5s46.667 15.5 66 15.5c6 0 29.667 -6 71 -18c22.667 -6.66699 39.667 -10 51 -10c12.667 0 24.667 2.5 36 7.5s23.666 11.833 36.999 20.5z" />
    <glyph glyph-name="Ecircumflex" unicode="&#xca;" horiz-adv-x="726" 
d="M716 0h-328v146h40l-146 133v-133h68v-146h-320v146h68v378h-68v146h320v-146h-68v-141l148 141h-42v146h311v-146h-33l-213 -188l213 -190h50v-146z" />
    <glyph glyph-name="Ecircumflex" unicode="&#x41a;" horiz-adv-x="726" 
d="M716 0h-328v146h40l-146 133v-133h68v-146h-320v146h68v378h-68v146h320v-146h-68v-141l148 141h-42v146h311v-146h-33l-213 -188l213 -190h50v-146z" />
    <glyph glyph-name="Edieresis" unicode="&#xcb;" horiz-adv-x="722" 
d="M169 670h283l192 -524h68v-146h-319v146h52l-84 262l-93 -262h52v-146h-310v146h68l139 378h-48v146z" />
    <glyph glyph-name="Edieresis" unicode="&#x41b;" horiz-adv-x="722" 
d="M169 670h283l192 -524h68v-146h-319v146h52l-84 262l-93 -262h52v-146h-310v146h68l139 378h-48v146z" />
    <glyph glyph-name="Igrave" unicode="&#xcc;" horiz-adv-x="918" 
d="M30 670h298l128 -390h6l128 390h298v-146h-68v-378h68v-146h-292v146h62v247l-136 -393h-126l-132 393h-4v-247h62v-146h-292v146h68v378h-68v146z" />
    <glyph glyph-name="Igrave" unicode="&#x41c;" horiz-adv-x="918" 
d="M30 670h298l128 -390h6l128 390h298v-146h-68v-378h68v-146h-292v146h62v247l-136 -393h-126l-132 393h-4v-247h62v-146h-292v146h68v378h-68v146z" />
    <glyph glyph-name="Iacute" unicode="&#xcd;" horiz-adv-x="759" 
d="M30 670h320v-146h-68v-100h195v100h-68v146h320v-146h-68v-378h68v-146h-320v146h68v116h-195v-116h68v-146h-320v146h68v378h-68v146z" />
    <glyph glyph-name="Iacute" unicode="&#x41d;" horiz-adv-x="759" 
d="M30 670h320v-146h-68v-100h195v100h-68v146h320v-146h-68v-378h68v-146h-320v146h68v116h-195v-116h68v-146h-320v146h68v378h-68v146z" />
    <glyph glyph-name="Icircumflex" unicode="&#xce;" horiz-adv-x="756" 
d="M736 337c0 -95.333 -35.333 -177.334 -106 -246.001s-154.667 -103 -252 -103c-96 0 -179.667 34.333 -251 103s-107 150.667 -107 246c0 94 35.333 175 106 243s154.667 102 252 102c96.667 0 180.5 -34.167 251.5 -102.5s106.5 -149.166 106.5 -242.499zM548 336.999
c0 47.333 -16.333 87.333 -49 120s-73 49 -121 49c-46.667 0 -86.667 -16.333 -120 -49s-50 -72.667 -50 -120c0 -48.667 16.333 -89.667 49 -123s73 -50 121 -50c47.333 0 87.5 16.833 120.5 50.5s49.5 74.5 49.5 122.5z" />
    <glyph glyph-name="Icircumflex" unicode="&#x41e;" horiz-adv-x="756" 
d="M736 337c0 -95.333 -35.333 -177.334 -106 -246.001s-154.667 -103 -252 -103c-96 0 -179.667 34.333 -251 103s-107 150.667 -107 246c0 94 35.333 175 106 243s154.667 102 252 102c96.667 0 180.5 -34.167 251.5 -102.5s106.5 -149.166 106.5 -242.499zM548 336.999
c0 47.333 -16.333 87.333 -49 120s-73 49 -121 49c-46.667 0 -86.667 -16.333 -120 -49s-50 -72.667 -50 -120c0 -48.667 16.333 -89.667 49 -123s73 -50 121 -50c47.333 0 87.5 16.833 120.5 50.5s49.5 74.5 49.5 122.5z" />
    <glyph glyph-name="Idieresis" unicode="&#xcf;" horiz-adv-x="759" 
d="M729 0h-320v146h68v368h-195v-368h68v-146h-320v146h68v378h-68v146h699v-146h-68v-378h68v-146z" />
    <glyph glyph-name="Idieresis" unicode="&#x41f;" horiz-adv-x="759" 
d="M729 0h-320v146h68v368h-195v-368h68v-146h-320v146h68v378h-68v146h699v-146h-68v-378h68v-146z" />
    <glyph glyph-name="Eth" unicode="&#xd0;" horiz-adv-x="614" 
d="M282 208v-62h68v-146h-320v146h68v378h-68v146h289c74.667 0 139.167 -21.833 193.5 -65.5s81.5 -96.5 81.5 -158.5c0 -76 -25.333 -135.667 -76 -179c-45.333 -39.333 -102.333 -59 -171 -59h-65zM282 514v-150h39c24.667 0 45 7 61 21s24 32.667 24 56
c0 22.667 -8 40.5 -24 53.5s-36.333 19.5 -61 19.5h-39z" />
    <glyph glyph-name="Eth" unicode="&#x420;" horiz-adv-x="614" 
d="M282 208v-62h68v-146h-320v146h68v378h-68v146h289c74.667 0 139.167 -21.833 193.5 -65.5s81.5 -96.5 81.5 -158.5c0 -76 -25.333 -135.667 -76 -179c-45.333 -39.333 -102.333 -59 -171 -59h-65zM282 514v-150h39c24.667 0 45 7 61 21s24 32.667 24 56
c0 22.667 -8 40.5 -24 53.5s-36.333 19.5 -61 19.5h-39z" />
    <glyph glyph-name="Ntilde" unicode="&#xd1;" horiz-adv-x="737" 
d="M556 670h139.997v-265h-162c-13.333 30.667 -34.666 55.167 -63.999 73.5s-60 27.5 -92 27.5c-48 0 -88.333 -16.667 -121 -50s-49 -74.666 -49 -123.999c0 -48 16 -88 48 -120s72.667 -48 122 -48c30.667 0 59.834 8.16699 87.501 24.5s48.5 38.166 62.5 65.499h197
c-18.667 -68 -52 -124 -100 -168c-37.333 -34.667 -82.666 -60.667 -135.999 -78c-40.667 -13.333 -77.667 -20 -111 -20c-96 0 -179.667 34 -251 102s-107 148.667 -107 242c0 96 35.333 178.333 106 247s154.667 103 252 103c36 0 69.5 -5 100.5 -15
s56.833 -23.667 77.5 -41v44z" />
    <glyph glyph-name="Ntilde" unicode="&#x421;" horiz-adv-x="737" 
d="M556 670h139.997v-265h-162c-13.333 30.667 -34.666 55.167 -63.999 73.5s-60 27.5 -92 27.5c-48 0 -88.333 -16.667 -121 -50s-49 -74.666 -49 -123.999c0 -48 16 -88 48 -120s72.667 -48 122 -48c30.667 0 59.834 8.16699 87.501 24.5s48.5 38.166 62.5 65.499h197
c-18.667 -68 -52 -124 -100 -168c-37.333 -34.667 -82.666 -60.667 -135.999 -78c-40.667 -13.333 -77.667 -20 -111 -20c-96 0 -179.667 34 -251 102s-107 148.667 -107 242c0 96 35.333 178.333 106 247s154.667 103 252 103c36 0 69.5 -5 100.5 -15
s56.833 -23.667 77.5 -41v44z" />
    <glyph glyph-name="Ograve" unicode="&#xd2;" horiz-adv-x="590" 
d="M20 670h550v-246h-136v90h-54v-368h68v-146h-306v146h68v368h-54v-90h-136v246z" />
    <glyph glyph-name="Ograve" unicode="&#x422;" horiz-adv-x="590" 
d="M20 670h550v-246h-136v90h-54v-368h68v-146h-306v146h68v368h-54v-90h-136v246z" />
    <glyph glyph-name="Oacute" unicode="&#xd3;" horiz-adv-x="634" 
d="M14 670h278v-146h-38l65 -131l65 131h-38v146h278v-146h-50l-282 -524h-164v146h68l36 64l-168 314h-50v146z" />
    <glyph glyph-name="Oacute" unicode="&#x423;" horiz-adv-x="634" 
d="M14 670h278v-146h-38l65 -131l65 131h-38v146h278v-146h-50l-282 -524h-164v146h68l36 64l-168 314h-50v146z" />
    <glyph glyph-name="Ocircumflex" unicode="&#xd4;" horiz-adv-x="819" 
d="M317 280v110h-76c-15.333 0 -28.333 -5.33301 -39 -16s-16 -23.667 -16 -39s5.33301 -28.333 16 -39s23.667 -16 39 -16h76zM249 670h320v-116h-68v-36h132c47.333 0 87.5 -17.833 120.5 -53.5s49.5 -78.834 49.5 -129.501s-16.5 -93.834 -49.5 -129.501
s-73.167 -53.5 -120.5 -53.5h-132v-36h68v-116h-320v116h68v36h-131c-47.333 0 -87.5 17.833 -120.5 53.5s-49.5 78.834 -49.5 129.501s16.5 93.834 49.5 129.501s73.167 53.5 120.5 53.5h131v36h-68v116zM501 390v-110h77c15.333 0 28.333 5.33301 39 16s16 23.667 16 39
s-5.33301 28.333 -16 39s-23.667 16 -39 16h-77z" />
    <glyph glyph-name="Ocircumflex" unicode="&#x424;" horiz-adv-x="819" 
d="M317 280v110h-76c-15.333 0 -28.333 -5.33301 -39 -16s-16 -23.667 -16 -39s5.33301 -28.333 16 -39s23.667 -16 39 -16h76zM249 670h320v-116h-68v-36h132c47.333 0 87.5 -17.833 120.5 -53.5s49.5 -78.834 49.5 -129.501s-16.5 -93.834 -49.5 -129.501
s-73.167 -53.5 -120.5 -53.5h-132v-36h68v-116h-320v116h68v36h-131c-47.333 0 -87.5 17.833 -120.5 53.5s-49.5 78.834 -49.5 129.501s16.5 93.834 49.5 129.501s73.167 53.5 120.5 53.5h131v36h-68v116zM501 390v-110h77c15.333 0 28.333 5.33301 39 16s16 23.667 16 39
s-5.33301 28.333 -16 39s-23.667 16 -39 16h-77z" />
    <glyph glyph-name="Otilde" unicode="&#xd5;" horiz-adv-x="726" 
d="M26 670h307v-146h-38l67 -68l55 68h-38v146h321v-146h-74l-159 -191l170 -187h63v-146h-314v146h36l-60 65l-63 -65h33v-146h-306v146h50l172 188l-174 190h-48v146z" />
    <glyph glyph-name="Otilde" unicode="&#x425;" horiz-adv-x="726" 
d="M26 670h307v-146h-38l67 -68l55 68h-38v146h321v-146h-74l-159 -191l170 -187h63v-146h-314v146h36l-60 65l-63 -65h33v-146h-306v146h50l172 188l-174 190h-48v146z" />
    <glyph glyph-name="Odieresis" unicode="&#xd6;" horiz-adv-x="759" 
d="M30 670h320v-146h-68v-372h195v372h-68v146h320v-146h-68v-378h68v-286h-138v140h-561v146h68v378h-68v146z" />
    <glyph glyph-name="Odieresis" unicode="&#x426;" horiz-adv-x="759" 
d="M30 670h320v-146h-68v-372h195v372h-68v146h320v-146h-68v-378h68v-286h-138v140h-561v146h68v378h-68v146z" />
    <glyph glyph-name="multiply" unicode="&#xd7;" horiz-adv-x="700" 
d="M360 670h310v-146h-68v-378h68v-146h-310v146h68v116h-155c-54 0 -99.667 17.5 -137 52.5s-56 79.167 -56 132.5v77h-68v146h310v-146h-68v-48c0 -22 8.16699 -38.833 24.5 -50.5s36.833 -17.5 61.5 -17.5h88v116h-68v146z" />
    <glyph glyph-name="multiply" unicode="&#x427;" horiz-adv-x="700" 
d="M360 670h310v-146h-68v-378h68v-146h-310v146h68v116h-155c-54 0 -99.667 17.5 -137 52.5s-56 79.167 -56 132.5v77h-68v146h310v-146h-68v-48c0 -22 8.16699 -38.833 24.5 -50.5s36.833 -17.5 61.5 -17.5h88v116h-68v146z" />
    <glyph glyph-name="Oslash" unicode="&#xd8;" horiz-adv-x="1090" 
d="M30 670h320v-146h-68v-372h176v372h-68v146h320v-146h-68v-372h176v372h-68v146h320v-146h-68v-378h68v-146h-1040v146h68v378h-68v146z" />
    <glyph glyph-name="Oslash" unicode="&#x428;" horiz-adv-x="1090" 
d="M30 670h320v-146h-68v-372h176v372h-68v146h320v-146h-68v-372h176v372h-68v146h320v-146h-68v-378h68v-146h-1040v146h68v378h-68v146z" />
    <glyph glyph-name="Ugrave" unicode="&#xd9;" horiz-adv-x="1100" 
d="M932 0h-902v146h68v378h-68v146h320v-146h-68v-372h176v372h-68v146h320v-146h-68v-372h176v372h-68v146h320v-146h-68v-378h68v-286h-138v140z" />
    <glyph glyph-name="Ugrave" unicode="&#x429;" horiz-adv-x="1100" 
d="M932 0h-902v146h68v378h-68v146h320v-146h-68v-372h176v372h-68v146h320v-146h-68v-372h176v372h-68v146h320v-146h-68v-378h68v-286h-138v140z" />
    <glyph glyph-name="Uacute" unicode="&#xda;" horiz-adv-x="742" 
d="M226 146v372.002h-68v-128h-138v280h458v-146h-68v-71h78c64.667 0 120.5 -21.833 167.5 -65.5s70.5 -96.834 70.5 -159.501s-23.667 -116.334 -71 -161.001s-103 -67 -167 -67h-330v146h68zM410 301.002v-148.999h54c21.333 0 39 6.66699 53 20s21 31.666 21 54.999
c0 20.667 -7.16699 38.167 -21.5 52.5s-31.833 21.5 -52.5 21.5h-54z" />
    <glyph glyph-name="Uacute" unicode="&#x42a;" horiz-adv-x="742" 
d="M226 146v372.002h-68v-128h-138v280h458v-146h-68v-71h78c64.667 0 120.5 -21.833 167.5 -65.5s70.5 -96.834 70.5 -159.501s-23.667 -116.334 -71 -161.001s-103 -67 -167 -67h-330v146h68zM410 301.002v-148.999h54c21.333 0 39 6.66699 53 20s21 31.666 21 54.999
c0 20.667 -7.16699 38.167 -21.5 52.5s-31.833 21.5 -52.5 21.5h-54z" />
    <glyph glyph-name="Ucircumflex" unicode="&#xdb;" horiz-adv-x="940" 
d="M910 0h-320v146h68v378h-68v146h320v-146h-68v-378h68v-146zM30 670l320 -0.00195312v-146h-68v-71h78c64 0 118.333 -21.667 163 -65s67 -96.666 67 -159.999s-22.5 -117.166 -67.5 -161.499s-99.167 -66.5 -162.5 -66.5h-330v146h68v378h-68v146zM282 300.998v-148.999
h54c21.333 0 39 6.66699 53 20s21 31.666 21 54.999c0 20.667 -7.16699 38.167 -21.5 52.5s-31.833 21.5 -52.5 21.5h-54z" />
    <glyph glyph-name="Ucircumflex" unicode="&#x42b;" horiz-adv-x="940" 
d="M910 0h-320v146h68v378h-68v146h320v-146h-68v-378h68v-146zM30 670l320 -0.00195312v-146h-68v-71h78c64 0 118.333 -21.667 163 -65s67 -96.666 67 -159.999s-22.5 -117.166 -67.5 -161.499s-99.167 -66.5 -162.5 -66.5h-330v146h68v378h-68v146zM282 300.998v-148.999
h54c21.333 0 39 6.66699 53 20s21 31.666 21 54.999c0 20.667 -7.16699 38.167 -21.5 52.5s-31.833 21.5 -52.5 21.5h-54z" />
    <glyph glyph-name="Udieresis" unicode="&#xdc;" horiz-adv-x="614" 
d="M30 670l320 0.00195312v-146h-68v-71h78c64.667 0 120.5 -21.833 167.5 -65.5s70.5 -96.834 70.5 -159.501s-23.667 -116.334 -71 -161.001s-103 -67 -167 -67h-330v146h68v378h-68v146zM282 301.002v-148.999h54c21.333 0 39 6.66699 53 20s21 31.666 21 54.999
c0 20.667 -7.16699 38.167 -21.5 52.5s-31.833 21.5 -52.5 21.5h-54z" />
    <glyph glyph-name="Udieresis" unicode="&#x42c;" horiz-adv-x="614" 
d="M30 670l320 0.00195312v-146h-68v-71h78c64.667 0 120.5 -21.833 167.5 -65.5s70.5 -96.834 70.5 -159.501s-23.667 -116.334 -71 -161.001s-103 -67 -167 -67h-330v146h68v378h-68v146zM282 301.002v-148.999h54c21.333 0 39 6.66699 53 20s21 31.666 21 54.999
c0 20.667 -7.16699 38.167 -21.5 52.5s-31.833 21.5 -52.5 21.5h-54z" />
    <glyph glyph-name="Yacute" unicode="&#xdd;" horiz-adv-x="745" 
d="M49 670h139.999v-44c16.667 16 42.167 29.333 76.5 40s68.166 16 101.499 16c96.667 0 180.5 -34.5 251.5 -103.5s106.5 -151.167 106.5 -246.5s-34.833 -176.5 -104.5 -243.5s-154.167 -100.5 -253.5 -100.5c-75.333 0 -146.333 25 -213 75s-109.667 111 -129 183h184
c10 -22.667 30.333 -42 61 -58s63 -24 97 -24c34.667 0 65.667 8.83301 93 26.5s47.666 41.5 60.999 71.5h-258v152h258c-14.667 27.333 -35.667 49.5 -63 66.5s-57.666 25.5 -90.999 25.5c-31.333 0 -62.166 -8 -92.499 -24s-51.166 -35.333 -62.499 -58h-163v246z" />
    <glyph glyph-name="Yacute" unicode="&#x42d;" horiz-adv-x="745" 
d="M49 670h139.999v-44c16.667 16 42.167 29.333 76.5 40s68.166 16 101.499 16c96.667 0 180.5 -34.5 251.5 -103.5s106.5 -151.167 106.5 -246.5s-34.833 -176.5 -104.5 -243.5s-154.167 -100.5 -253.5 -100.5c-75.333 0 -146.333 25 -213 75s-109.667 111 -129 183h184
c10 -22.667 30.333 -42 61 -58s63 -24 97 -24c34.667 0 65.667 8.83301 93 26.5s47.666 41.5 60.999 71.5h-258v152h258c-14.667 27.333 -35.667 49.5 -63 66.5s-57.666 25.5 -90.999 25.5c-31.333 0 -62.166 -8 -92.499 -24s-51.166 -35.333 -62.499 -58h-163v246z" />
    <glyph glyph-name="Thorn" unicode="&#xde;" horiz-adv-x="1065" 
d="M30 670l319.998 -0.00195312v-146h-68v-100h59c20.667 74.667 63.334 136.334 128.001 185.001s137.334 73 218.001 73c96.667 0 180.5 -34.167 251.5 -102.5s106.5 -149.166 106.5 -242.499c0 -95.333 -35.333 -177.333 -106 -246s-154.667 -103 -252 -103
c-83.333 0 -158 26 -224 78s-108 117.333 -126 196h-55v-116h68v-146h-320v146h68v378h-68v146zM856.998 336.998c0 47.333 -16.333 87.333 -49 120s-73 49 -121 49c-46.667 0 -86.667 -16.333 -120 -49s-50 -72.667 -50 -120c0 -48.667 16.333 -89.667 49 -123
s73 -50 121 -50c47.333 0 87.5 16.833 120.5 50.5s49.5 74.5 49.5 122.5z" />
    <glyph glyph-name="Thorn" unicode="&#x42e;" horiz-adv-x="1065" 
d="M30 670l319.998 -0.00195312v-146h-68v-100h59c20.667 74.667 63.334 136.334 128.001 185.001s137.334 73 218.001 73c96.667 0 180.5 -34.167 251.5 -102.5s106.5 -149.166 106.5 -242.499c0 -95.333 -35.333 -177.333 -106 -246s-154.667 -103 -252 -103
c-83.333 0 -158 26 -224 78s-108 117.333 -126 196h-55v-116h68v-146h-320v146h68v378h-68v146zM856.998 336.998c0 47.333 -16.333 87.333 -49 120s-73 49 -121 49c-46.667 0 -86.667 -16.333 -120 -49s-50 -72.667 -50 -120c0 -48.667 16.333 -89.667 49 -123
s73 -50 121 -50c47.333 0 87.5 16.833 120.5 50.5s49.5 74.5 49.5 122.5z" />
    <glyph glyph-name="germandbls" unicode="&#xdf;" horiz-adv-x="636" 
d="M354 228l-156.002 -227.999h-188v146h53l89 92c-39.333 15.333 -70.666 39.666 -93.999 72.999c-25.333 36 -38 78.333 -38 127c0 64.667 25.833 119.5 77.5 164.5s116.834 67.5 195.501 67.5h313v-146h-68v-378h68v-146h-298v140h46v88zM353.998 348.001v166h-57
c-25.333 0 -46.5 -7.33301 -63.5 -22s-25.5 -33 -25.5 -55c0 -24.667 8.33301 -45.667 25 -63s37.667 -26 63 -26h58z" />
    <glyph glyph-name="germandbls" unicode="&#x42f;" horiz-adv-x="636" 
d="M354 228l-156.002 -227.999h-188v146h53l89 92c-39.333 15.333 -70.666 39.666 -93.999 72.999c-25.333 36 -38 78.333 -38 127c0 64.667 25.833 119.5 77.5 164.5s116.834 67.5 195.501 67.5h313v-146h-68v-378h68v-146h-298v140h46v88zM353.998 348.001v166h-57
c-25.333 0 -46.5 -7.33301 -63.5 -22s-25.5 -33 -25.5 -55c0 -24.667 8.33301 -45.667 25 -63s37.667 -26 63 -26h58z" />
    <glyph glyph-name="agrave" unicode="&#xe0;" horiz-adv-x="650" 
d="M620 0h-214v40c-14 -14 -33 -26.167 -57 -36.5s-46.333 -15.5 -67 -15.5c-74 0 -136.833 25.833 -188.5 77.5s-77.5 114.167 -77.5 187.5c0 72.667 26 135 78 187s114.667 78 188 78c20 0 42 -5 66 -15s43.333 -22.333 58 -37v40h214v-146h-52v-214h52v-146zM406 253
c0 31.333 -10.667 58 -32 80s-48 33 -80 33c-30.667 0 -57 -11 -79 -33s-33 -48.667 -33 -80s10.667 -58 32 -80s48 -33 80 -33c30.667 0 57 11 79 33s33 48.667 33 80z" />
    <glyph glyph-name="agrave" unicode="&#x430;" horiz-adv-x="650" 
d="M620 0h-214v40c-14 -14 -33 -26.167 -57 -36.5s-46.333 -15.5 -67 -15.5c-74 0 -136.833 25.833 -188.5 77.5s-77.5 114.167 -77.5 187.5c0 72.667 26 135 78 187s114.667 78 188 78c20 0 42 -5 66 -15s43.333 -22.333 58 -37v40h214v-146h-52v-214h52v-146zM406 253
c0 31.333 -10.667 58 -32 80s-48 33 -80 33c-30.667 0 -57 -11 -79 -33s-33 -48.667 -33 -80s10.667 -58 32 -80s48 -33 80 -33c30.667 0 57 11 79 33s33 48.667 33 80z" />
    <glyph glyph-name="aacute" unicode="&#xe1;" horiz-adv-x="587" 
d="M571 253c0 -72.667 -26.333 -134.998 -79 -186.998s-116.334 -78 -191.001 -78c-75.333 0 -139.333 25.667 -192 77s-79 114 -79 188c0 154.667 18.333 261.667 55 321c39.333 64 111.333 96 216 96h72c14 0 28.167 1.16699 42.5 3.5s23.833 5.16602 28.5 8.49902
l60 -118c-10.667 -6 -22.667 -10.5 -36 -13.5s-25.666 -4.5 -36.999 -4.5c-24 0 -45.333 0.5 -64 1.5s-40.667 2.5 -66 4.5c-29.333 0 -56 -11 -80 -33c-26.667 -24.667 -40 -56.334 -40 -95.001l4 -2c38.667 56 91 84 157 84c63.333 0 117.333 -24.667 162 -74
s67 -109 67 -179zM405 249.002c0 27.333 -9.99805 50.666 -29.998 69.999s-44.667 29 -74 29c-28.667 0 -53.334 -9.66699 -74.001 -29s-31 -42.666 -31 -69.999c0 -29.333 10.167 -53.833 30.5 -73.5s45.166 -29.5 74.499 -29.5c28 0 52.333 10 73 30s31 44.333 31 73z" />
    <glyph glyph-name="aacute" unicode="&#x431;" horiz-adv-x="587" 
d="M571 253c0 -72.667 -26.333 -134.998 -79 -186.998s-116.334 -78 -191.001 -78c-75.333 0 -139.333 25.667 -192 77s-79 114 -79 188c0 154.667 18.333 261.667 55 321c39.333 64 111.333 96 216 96h72c14 0 28.167 1.16699 42.5 3.5s23.833 5.16602 28.5 8.49902
l60 -118c-10.667 -6 -22.667 -10.5 -36 -13.5s-25.666 -4.5 -36.999 -4.5c-24 0 -45.333 0.5 -64 1.5s-40.667 2.5 -66 4.5c-29.333 0 -56 -11 -80 -33c-26.667 -24.667 -40 -56.334 -40 -95.001l4 -2c38.667 56 91 84 157 84c63.333 0 117.333 -24.667 162 -74
s67 -109 67 -179zM405 249.002c0 27.333 -9.99805 50.666 -29.998 69.999s-44.667 29 -74 29c-28.667 0 -53.334 -9.66699 -74.001 -29s-31 -42.666 -31 -69.999c0 -29.333 10.167 -53.833 30.5 -73.5s45.166 -29.5 74.499 -29.5c28 0 52.333 10 73 30s31 44.333 31 73z" />
    <glyph glyph-name="acircumflex" unicode="&#xe2;" horiz-adv-x="618" 
d="M30 506l387.999 -0.00195312c42 0 77.5 -12.167 106.5 -36.5s43.5 -54.166 43.5 -89.499c0 -22.667 -7.16699 -43 -21.5 -61s-33.166 -33.333 -56.499 -46c29.333 -4.66699 54.666 -20.667 75.999 -48s32 -55.666 32 -84.999c0 -38.667 -17.667 -71.667 -53 -99
s-77.666 -41 -126.999 -41h-388v146h52v214h-52v146zM243.999 389.998v-71.001h107c10 0 18.667 3.33301 26 10s11 15.334 11 26.001c0 9.33301 -3.5 17.5 -10.5 24.5s-15.833 10.5 -26.5 10.5h-107zM243.999 202.997v-87h122c14.667 0 27 4.33301 37 13s15 20 15 34
c0 10.667 -5 20 -15 28s-22.333 12 -37 12h-122z" />
    <glyph glyph-name="acircumflex" unicode="&#x432;" horiz-adv-x="618" 
d="M30 506l387.999 -0.00195312c42 0 77.5 -12.167 106.5 -36.5s43.5 -54.166 43.5 -89.499c0 -22.667 -7.16699 -43 -21.5 -61s-33.166 -33.333 -56.499 -46c29.333 -4.66699 54.666 -20.667 75.999 -48s32 -55.666 32 -84.999c0 -38.667 -17.667 -71.667 -53 -99
s-77.666 -41 -126.999 -41h-388v146h52v214h-52v146zM243.999 389.998v-71.001h107c10 0 18.667 3.33301 26 10s11 15.334 11 26.001c0 9.33301 -3.5 17.5 -10.5 24.5s-15.833 10.5 -26.5 10.5h-107zM243.999 202.997v-87h122c14.667 0 27 4.33301 37 13s15 20 15 34
c0 10.667 -5 20 -15 28s-22.333 12 -37 12h-122z" />
    <glyph glyph-name="atilde" unicode="&#xe3;" horiz-adv-x="475" 
d="M465 306h-138v48h-83v-208h52v-146h-266v146h52v214h-52v146h435v-200z" />
    <glyph glyph-name="atilde" unicode="&#x433;" horiz-adv-x="475" 
d="M465 306h-138v48h-83v-208h52v-146h-266v146h52v214h-52v146h435v-200z" />
    <glyph glyph-name="adieresis" unicode="&#xe4;" horiz-adv-x="562" 
d="M410 0h-258v-140h-138v286h52l86 214h-48v146h255l137 -360h52v-286h-138v140zM280 310l-56 -182h113z" />
    <glyph glyph-name="adieresis" unicode="&#x434;" horiz-adv-x="562" 
d="M410 0h-258v-140h-138v286h52l86 214h-48v146h255l137 -360h52v-286h-138v140zM280 310l-56 -182h113z" />
    <glyph glyph-name="aring" unicode="&#xe5;" horiz-adv-x="588" 
d="M294 134c20.667 0 39.167 3.00098 55.5 9.00098s26.5 14 30.5 24h176c-19.333 -52 -53 -94.833 -101 -128.5s-101.667 -50.5 -161 -50.5c-80 0 -146.333 25.667 -199 77s-79 114 -79 188c0 73.333 26.5 135.833 79.5 187.5s119.167 77.5 198.5 77.5
c76.667 0 142.167 -25.833 196.5 -77.5s81.5 -114.167 81.5 -187.5c0 -10 -0.333008 -18 -1 -24s-2 -14.667 -4 -26h-374c4.66699 -18.667 17.667 -34.834 39 -48.501s42 -20.5 62 -20.5zM294 372.001c-17.333 0 -34.833 -4.33301 -52.5 -13s-30.5 -22 -38.5 -40h182
c-5.33301 14.667 -16.833 27.167 -34.5 37.5s-36.5 15.5 -56.5 15.5z" />
    <glyph glyph-name="aring" unicode="&#x435;" horiz-adv-x="588" 
d="M294 134c20.667 0 39.167 3.00098 55.5 9.00098s26.5 14 30.5 24h176c-19.333 -52 -53 -94.833 -101 -128.5s-101.667 -50.5 -161 -50.5c-80 0 -146.333 25.667 -199 77s-79 114 -79 188c0 73.333 26.5 135.833 79.5 187.5s119.167 77.5 198.5 77.5
c76.667 0 142.167 -25.833 196.5 -77.5s81.5 -114.167 81.5 -187.5c0 -10 -0.333008 -18 -1 -24s-2 -14.667 -4 -26h-374c4.66699 -18.667 17.667 -34.834 39 -48.501s42 -20.5 62 -20.5zM294 372.001c-17.333 0 -34.833 -4.33301 -52.5 -13s-30.5 -22 -38.5 -40h182
c-5.33301 14.667 -16.833 27.167 -34.5 37.5s-36.5 15.5 -56.5 15.5z" />
    <glyph glyph-name="ae" unicode="&#xe6;" horiz-adv-x="838" 
d="M164 0h-152v146h52l111 107l-109 107h-52v146h228v-127l94 -91v72h-52v146h270v-146h-52v-72l94 91v127h228v-146h-52l-109 -107l111 -107h52v-146h-152l-172 212v-66h42v-146h-250v146h42v66z" />
    <glyph glyph-name="ae" unicode="&#x436;" horiz-adv-x="838" 
d="M164 0h-152v146h52l111 107l-109 107h-52v146h228v-127l94 -91v72h-52v146h270v-146h-52v-72l94 91v127h228v-146h-52l-109 -107l111 -107h52v-146h-152l-172 212v-66h42v-146h-250v146h42v66z" />
    <glyph glyph-name="ccedilla" unicode="&#xe7;" horiz-adv-x="479" 
d="M37 506h113.999v-36c14 12.667 34.5 23.834 61.5 33.501s51.167 14.5 72.5 14.5c44.667 0 82.834 -13.833 114.501 -41.5s47.5 -61.167 47.5 -100.5c0 -19.333 -7 -39.333 -21 -60s-31.667 -36.667 -53 -48c24 -6.66699 44.333 -22 61 -46s25 -50 25 -78
c0 -42.667 -17 -79.334 -51 -110.001s-75 -46 -123 -46c-22.667 0 -47.5 4.16699 -74.5 12.5s-46.833 18.166 -59.5 29.499v-30h-127v156h157c0 -14.667 5.33301 -27 16 -37s23 -15 37 -15s26 4 36 12s15 18 15 30c0 14 -4.83301 25.833 -14.5 35.5
s-21.834 14.5 -36.501 14.5h-70v116h65c12 0 22.667 4.33301 32 13s14 19 14 31c0 12.667 -4.5 23.5 -13.5 32.5s-19.833 13.5 -32.5 13.5c-13.333 0 -24.666 -4.66699 -33.999 -14s-14 -20.666 -14 -33.999h-144v152z" />
    <glyph glyph-name="ccedilla" unicode="&#x437;" horiz-adv-x="479" 
d="M37 506h113.999v-36c14 12.667 34.5 23.834 61.5 33.501s51.167 14.5 72.5 14.5c44.667 0 82.834 -13.833 114.501 -41.5s47.5 -61.167 47.5 -100.5c0 -19.333 -7 -39.333 -21 -60s-31.667 -36.667 -53 -48c24 -6.66699 44.333 -22 61 -46s25 -50 25 -78
c0 -42.667 -17 -79.334 -51 -110.001s-75 -46 -123 -46c-22.667 0 -47.5 4.16699 -74.5 12.5s-46.833 18.166 -59.5 29.499v-30h-127v156h157c0 -14.667 5.33301 -27 16 -37s23 -15 37 -15s26 4 36 12s15 18 15 30c0 14 -4.83301 25.833 -14.5 35.5
s-21.834 14.5 -36.501 14.5h-70v116h65c12 0 22.667 4.33301 32 13s14 19 14 31c0 12.667 -4.5 23.5 -13.5 32.5s-19.833 13.5 -32.5 13.5c-13.333 0 -24.666 -4.66699 -33.999 -14s-14 -20.666 -14 -33.999h-144v152z" />
    <glyph glyph-name="egrave" unicode="&#xe8;" horiz-adv-x="644" 
d="M30 506h270v-146h-52v-115l187 261h179v-146h-52v-214h52v-146h-270v146h52v99l-179 -245h-187v146h52v214h-52v146z" />
    <glyph glyph-name="egrave" unicode="&#x438;" horiz-adv-x="644" 
d="M30 506h270v-146h-52v-115l187 261h179v-146h-52v-214h52v-146h-270v146h52v99l-179 -245h-187v146h52v214h-52v146z" />
    <glyph glyph-name="eacute" unicode="&#xe9;" horiz-adv-x="644" 
d="M443 682l82 -111c-12.667 -10 -28 -18.333 -46 -25s-35 -10 -51 -10c-13.333 0 -31 2.33301 -53 7c-52.667 11.333 -82.334 17 -89.001 17c-31.333 0 -61.666 -8 -90.999 -24l-73 102c14 12 33.5 22.333 58.5 31s47.5 13 67.5 13c8 0 26.333 -3.66699 55 -11
s51 -11 67 -11c14 0 27 1.83301 39 5.5s23.333 9.16699 34 16.5zM30 506h270v-146h-52v-115l187 261h179v-146h-52v-214h52v-146h-270v146h52v99l-179 -245h-187v146h52v214h-52v146z" />
    <glyph glyph-name="eacute" unicode="&#x439;" horiz-adv-x="644" 
d="M443 682l82 -111c-12.667 -10 -28 -18.333 -46 -25s-35 -10 -51 -10c-13.333 0 -31 2.33301 -53 7c-52.667 11.333 -82.334 17 -89.001 17c-31.333 0 -61.666 -8 -90.999 -24l-73 102c14 12 33.5 22.333 58.5 31s47.5 13 67.5 13c8 0 26.333 -3.66699 55 -11
s51 -11 67 -11c14 0 27 1.83301 39 5.5s23.333 9.16699 34 16.5zM30 506h270v-146h-52v-115l187 261h179v-146h-52v-214h52v-146h-270v146h52v99l-179 -245h-187v146h52v214h-52v146z" />
    <glyph glyph-name="ecircumflex" unicode="&#xea;" horiz-adv-x="584" 
d="M572 0h-152l-172 212v-66h42v-146h-260v146h52v214h-52v146h270v-146h-52v-72l94 91v127h228v-146h-52l-109 -107l111 -107h52v-146z" />
    <glyph glyph-name="ecircumflex" unicode="&#x43a;" horiz-adv-x="584" 
d="M572 0h-152l-172 212v-66h42v-146h-260v146h52v214h-52v146h270v-146h-52v-72l94 91v127h228v-146h-52l-109 -107l111 -107h52v-146z" />
    <glyph glyph-name="edieresis" unicode="&#xeb;" horiz-adv-x="552" 
d="M201 506h154l135 -360h52v-146h-248v146h32l-50 164l-50 -164h32v-146h-248v146h52z" />
    <glyph glyph-name="edieresis" unicode="&#x43b;" horiz-adv-x="552" 
d="M201 506h154l135 -360h52v-146h-248v146h32l-50 164l-50 -164h32v-146h-248v146h52z" />
    <glyph glyph-name="igrave" unicode="&#xec;" horiz-adv-x="716" 
d="M30 506h218l110 -146l110 146h218v-146h-52v-214h52v-146h-270v146h52v154l-106 -154h-8l-106 154v-154h52v-146h-270v146h52v214h-52v146z" />
    <glyph glyph-name="igrave" unicode="&#x43c;" horiz-adv-x="716" 
d="M30 506h218l110 -146l110 146h218v-146h-52v-214h52v-146h-270v146h52v154l-106 -154h-8l-106 154v-154h52v-146h-270v146h52v214h-52v146z" />
    <glyph glyph-name="iacute" unicode="&#xed;" horiz-adv-x="644" 
d="M614 0h-270v146h52v58h-148v-58h52v-146h-270v146h52v214h-52v146h270v-146h-52v-40h148v40h-52v146h270v-146h-52v-214h52v-146z" />
    <glyph glyph-name="iacute" unicode="&#x43d;" horiz-adv-x="644" 
d="M614 0h-270v146h52v58h-148v-58h52v-146h-270v146h52v214h-52v146h270v-146h-52v-40h148v40h-52v146h270v-146h-52v-214h52v-146z" />
    <glyph glyph-name="icircumflex" unicode="&#xee;" horiz-adv-x="588" 
d="M572 253c0 -72.667 -27.333 -135 -82 -187s-120 -78 -196 -78c-80 0 -146.333 25.667 -199 77s-79 114 -79 188c0 73.333 26.5 135.833 79.5 187.5s119.167 77.5 198.5 77.5c76.667 0 142.167 -25.833 196.5 -77.5s81.5 -114.167 81.5 -187.5zM406 253
c0 31.333 -10.667 58 -32 80s-48 33 -80 33c-30.667 0 -57 -11 -79 -33s-33 -48.667 -33 -80s10.667 -58 32 -80s48 -33 80 -33c30.667 0 57 11 79 33s33 48.667 33 80z" />
    <glyph glyph-name="icircumflex" unicode="&#x43e;" horiz-adv-x="588" 
d="M572 253c0 -72.667 -27.333 -135 -82 -187s-120 -78 -196 -78c-80 0 -146.333 25.667 -199 77s-79 114 -79 188c0 73.333 26.5 135.833 79.5 187.5s119.167 77.5 198.5 77.5c76.667 0 142.167 -25.833 196.5 -77.5s81.5 -114.167 81.5 -187.5zM406 253
c0 31.333 -10.667 58 -32 80s-48 33 -80 33c-30.667 0 -57 -11 -79 -33s-33 -48.667 -33 -80s10.667 -58 32 -80s48 -33 80 -33c30.667 0 57 11 79 33s33 48.667 33 80z" />
    <glyph glyph-name="idieresis" unicode="&#xef;" horiz-adv-x="644" 
d="M30 506h584v-146h-52v-214h52v-146h-270v146h52v208h-148v-208h52v-146h-270v146h52v214h-52v146z" />
    <glyph glyph-name="idieresis" unicode="&#x43f;" horiz-adv-x="644" 
d="M30 506h584v-146h-52v-214h52v-146h-270v146h52v208h-148v-208h52v-146h-270v146h52v214h-52v146z" />
    <glyph glyph-name="eth" unicode="&#xf0;" horiz-adv-x="650" 
d="M82 -28v388h-52v146h208v-50l6 10c14 14 33 26.167 57 36.5s46.333 15.5 67 15.5c74 0 136.833 -25.833 188.5 -77.5s77.5 -114.167 77.5 -187.5c0 -72.667 -26 -135 -78 -187s-114.667 -78 -188 -78c-20 0 -42 5 -66 15s-43.333 22.333 -58 37v-68h52v-146h-266v146h52z
M468 253c0 31.333 -10.667 58 -32 80s-48 33 -80 33c-30.667 0 -57 -11 -79 -33s-33 -48.667 -33 -80s10.667 -58 32 -80s48 -33 80 -33c30.667 0 57 11 79 33s33 48.667 33 80z" />
    <glyph glyph-name="eth" unicode="&#x440;" horiz-adv-x="650" 
d="M82 -28v388h-52v146h208v-50l6 10c14 14 33 26.167 57 36.5s46.333 15.5 67 15.5c74 0 136.833 -25.833 188.5 -77.5s77.5 -114.167 77.5 -187.5c0 -72.667 -26 -135 -78 -187s-114.667 -78 -188 -78c-20 0 -42 5 -66 15s-43.333 22.333 -58 37v-68h52v-146h-266v146h52z
M468 253c0 31.333 -10.667 58 -32 80s-48 33 -80 33c-30.667 0 -57 -11 -79 -33s-33 -48.667 -33 -80s10.667 -58 32 -80s48 -33 80 -33c30.667 0 57 11 79 33s33 48.667 33 80z" />
    <glyph glyph-name="ntilde" unicode="&#xf1;" horiz-adv-x="570" 
d="M402 506h132.002v-180h-141c-8 10.667 -21.667 20 -41 28s-38.666 12 -57.999 12c-30.667 0 -57 -11 -79 -33s-33 -48.667 -33 -80s10.667 -58 32 -80s48 -33 80 -33c21.333 0 41.333 5 60 15s32 22.667 40 38h164c-12.667 -56.667 -45.334 -105 -98.001 -145
s-109.334 -60 -170.001 -60c-76 0 -140.667 25.667 -194 77s-80 114 -80 188c0 72.667 25 135 75 187s110.333 78 181 78c26.667 0 52.167 -5 76.5 -15s42.166 -22.333 53.499 -37v40z" />
    <glyph glyph-name="ntilde" unicode="&#x441;" horiz-adv-x="570" 
d="M402 506h132.002v-180h-141c-8 10.667 -21.667 20 -41 28s-38.666 12 -57.999 12c-30.667 0 -57 -11 -79 -33s-33 -48.667 -33 -80s10.667 -58 32 -80s48 -33 80 -33c21.333 0 41.333 5 60 15s32 22.667 40 38h164c-12.667 -56.667 -45.334 -105 -98.001 -145
s-109.334 -60 -170.001 -60c-76 0 -140.667 25.667 -194 77s-80 114 -80 188c0 72.667 25 135 75 187s110.333 78 181 78c26.667 0 52.167 -5 76.5 -15s42.166 -22.333 53.499 -37v40z" />
    <glyph glyph-name="ograve" unicode="&#xf2;" horiz-adv-x="570" 
d="M202 146v208h-52v-48h-138v200h546v-200h-138v48h-52v-208h52v-146h-270v146h52z" />
    <glyph glyph-name="ograve" unicode="&#x442;" horiz-adv-x="570" 
d="M202 146v208h-52v-48h-138v200h546v-200h-138v48h-52v-208h52v-146h-270v146h52z" />
    <glyph glyph-name="oacute" unicode="&#xf3;" horiz-adv-x="560" 
d="M12 506h248v-146h-32l50 -164l50 164h-32v146h252v-146h-52l-155 -388h52v-146h-279v146h75l10 28l-135 360h-52v146z" />
    <glyph glyph-name="oacute" unicode="&#x443;" horiz-adv-x="560" 
d="M12 506h248v-146h-32l50 -164l50 164h-32v146h252v-146h-52l-155 -388h52v-146h-279v146h75l10 28l-135 360h-52v146z" />
    <glyph glyph-name="ocircumflex" unicode="&#xf4;" horiz-adv-x="784" 
d="M311 -46v34h-29c-74 0 -136.833 25.833 -188.5 77.5s-77.5 114.167 -77.5 187.5c0 72.667 26 135 78 187s114.667 78 188 78h29v24h-52v128h214v-152h29c74 0 136.833 -25.833 188.5 -77.5s77.5 -114.167 77.5 -187.5c0 -72.667 -26 -135 -78 -187s-114.667 -78 -188 -78
h-29v-34h52v-128h-266v128h52zM602 253c0 31.333 -10.667 58 -32 80s-48 33 -80 33h-17v-226h17c30.667 0 57 11 79 33s33 48.667 33 80zM182 253c0 -31.333 10.667 -58 32 -80s48 -33 80 -33h17v226h-17c-30.667 0 -57 -11 -79 -33s-33 -48.667 -33 -80z" />
    <glyph glyph-name="ocircumflex" unicode="&#x444;" horiz-adv-x="784" 
d="M311 -46v34h-29c-74 0 -136.833 25.833 -188.5 77.5s-77.5 114.167 -77.5 187.5c0 72.667 26 135 78 187s114.667 78 188 78h29v24h-52v128h214v-152h29c74 0 136.833 -25.833 188.5 -77.5s77.5 -114.167 77.5 -187.5c0 -72.667 -26 -135 -78 -187s-114.667 -78 -188 -78
h-29v-34h52v-128h-266v128h52zM602 253c0 31.333 -10.667 58 -32 80s-48 33 -80 33h-17v-226h17c30.667 0 57 11 79 33s33 48.667 33 80zM182 253c0 -31.333 10.667 -58 32 -80s48 -33 80 -33h17v226h-17c-30.667 0 -57 -11 -79 -33s-33 -48.667 -33 -80z" />
    <glyph glyph-name="otilde" unicode="&#xf5;" horiz-adv-x="588" 
d="M568 0h-232v108l-42 44l-42 -44v-108h-232v146h42l113 107l-113 107h-42v146h232v-108l42 -46l42 46v108h232v-146h-42l-113 -107l113 -107h42v-146z" />
    <glyph glyph-name="otilde" unicode="&#x445;" horiz-adv-x="588" 
d="M568 0h-232v108l-42 44l-42 -44v-108h-232v146h42l113 107l-113 107h-42v146h232v-108l42 -46l42 46v108h232v-146h-42l-113 -107l113 -107h42v-146z" />
    <glyph glyph-name="odieresis" unicode="&#xf6;" horiz-adv-x="644" 
d="M476 0h-446v146h52v214h-52v146h270v-146h-52v-208h148v208h-52v146h270v-146h-52v-214h52v-286h-138v140z" />
    <glyph glyph-name="odieresis" unicode="&#x446;" horiz-adv-x="644" 
d="M476 0h-446v146h52v214h-52v146h270v-146h-52v-208h148v208h-52v146h270v-146h-52v-214h52v-286h-138v140z" />
    <glyph glyph-name="divide" unicode="&#xf7;" horiz-adv-x="622" 
d="M592 0l-270 -0.000976562v146h52v47h-139c-46 0 -85.333 16.667 -118 50s-49 72.333 -49 117h-52v146h271v-146h-52c0 -15.333 5 -27.666 15 -36.999s22.333 -14 37 -14h87v51h-52v146h270v-146h-52v-214h52v-146z" />
    <glyph glyph-name="divide" unicode="&#x447;" horiz-adv-x="622" 
d="M592 0l-270 -0.000976562v146h52v47h-139c-46 0 -85.333 16.667 -118 50s-49 72.333 -49 117h-52v146h271v-146h-52c0 -15.333 5 -27.666 15 -36.999s22.333 -14 37 -14h87v51h-52v146h270v-146h-52v-214h52v-146z" />
    <glyph glyph-name="oslash" unicode="&#xf8;" horiz-adv-x="938" 
d="M30 506h266v-146h-52v-208h144v208h-52v146h266v-146h-52v-208h144v208h-52v146h266v-146h-52v-214h52v-146h-878v146h52v214h-52v146z" />
    <glyph glyph-name="oslash" unicode="&#x448;" horiz-adv-x="938" 
d="M30 506h266v-146h-52v-208h144v208h-52v146h266v-146h-52v-208h144v208h-52v146h266v-146h-52v-214h52v-146h-878v146h52v214h-52v146z" />
    <glyph glyph-name="ugrave" unicode="&#xf9;" horiz-adv-x="938" 
d="M770 0h-740v146h52v214h-52v146h266v-146h-52v-208h144v208h-52v146h266v-146h-52v-208h144v208h-52v146h266v-146h-52v-214h52v-286h-138v140z" />
    <glyph glyph-name="ugrave" unicode="&#x449;" horiz-adv-x="938" 
d="M770 0h-740v146h52v214h-52v146h266v-146h-52v-208h144v208h-52v146h266v-146h-52v-208h144v208h-52v146h266v-146h-52v-214h52v-286h-138v140z" />
    <glyph glyph-name="uacute" unicode="&#xfa;" horiz-adv-x="711" 
d="M20 506l405 0.000976562v-146h-52v-35h161c47.333 0 87 -17.667 119 -53c28 -31.333 42 -65 42 -101c0 -58.667 -19 -103.334 -57 -134.001c-30.667 -24.667 -67 -37 -109 -37h-370v146h52v214h-53v-134h-138v280zM373 209.001v-93h109c13.333 0 24.5 4.5 33.5 13.5
s13.5 20.167 13.5 33.5c0 12.667 -4.5 23.5 -13.5 32.5s-20.167 13.5 -33.5 13.5h-109z" />
    <glyph glyph-name="uacute" unicode="&#x44a;" horiz-adv-x="711" 
d="M20 506l405 0.000976562v-146h-52v-35h161c47.333 0 87 -17.667 119 -53c28 -31.333 42 -65 42 -101c0 -58.667 -19 -103.334 -57 -134.001c-30.667 -24.667 -67 -37 -109 -37h-370v146h52v214h-53v-134h-138v280zM373 209.001v-93h109c13.333 0 24.5 4.5 33.5 13.5
s13.5 20.167 13.5 33.5c0 12.667 -4.5 23.5 -13.5 32.5s-20.167 13.5 -33.5 13.5h-109z" />
    <glyph glyph-name="ucircumflex" unicode="&#xfb;" horiz-adv-x="874" 
d="M578 506h266v-146h-52v-214h52v-146h-266v146h52v214h-52v146zM30 506l266 0.000976562v-146h-52v-35h161c47.333 0 87 -17.667 119 -53c28 -31.333 42 -65 42 -101c0 -58.667 -19 -103.334 -57 -134.001c-30.667 -24.667 -67 -37 -109 -37h-370v146h52v214h-52v146z
M244 209.001v-93h109c13.333 0 24.5 4.5 33.5 13.5s13.5 20.167 13.5 33.5c0 12.667 -4.5 23.5 -13.5 32.5s-20.167 13.5 -33.5 13.5h-109z" />
    <glyph glyph-name="ucircumflex" unicode="&#x44b;" horiz-adv-x="874" 
d="M578 506h266v-146h-52v-214h52v-146h-266v146h52v214h-52v146zM30 506l266 0.000976562v-146h-52v-35h161c47.333 0 87 -17.667 119 -53c28 -31.333 42 -65 42 -101c0 -58.667 -19 -103.334 -57 -134.001c-30.667 -24.667 -67 -37 -109 -37h-370v146h52v214h-52v146z
M244 209.001v-93h109c13.333 0 24.5 4.5 33.5 13.5s13.5 20.167 13.5 33.5c0 12.667 -4.5 23.5 -13.5 32.5s-20.167 13.5 -33.5 13.5h-109z" />
    <glyph glyph-name="udieresis" unicode="&#xfc;" horiz-adv-x="582" 
d="M30 506l266 0.000976562v-146h-52v-35h161c47.333 0 87 -17.667 119 -53c28 -31.333 42 -65 42 -101c0 -58.667 -19 -103.334 -57 -134.001c-30.667 -24.667 -67 -37 -109 -37h-370v146h52v214h-52v146zM244 209.001v-93h109c13.333 0 24.5 4.5 33.5 13.5
s13.5 20.167 13.5 33.5c0 12.667 -4.5 23.5 -13.5 32.5s-20.167 13.5 -33.5 13.5h-109z" />
    <glyph glyph-name="udieresis" unicode="&#x44c;" horiz-adv-x="582" 
d="M30 506l266 0.000976562v-146h-52v-35h161c47.333 0 87 -17.667 119 -53c28 -31.333 42 -65 42 -101c0 -58.667 -19 -103.334 -57 -134.001c-30.667 -24.667 -67 -37 -109 -37h-370v146h52v214h-52v146zM244 209.001v-93h109c13.333 0 24.5 4.5 33.5 13.5
s13.5 20.167 13.5 33.5c0 12.667 -4.5 23.5 -13.5 32.5s-20.167 13.5 -33.5 13.5h-109z" />
    <glyph glyph-name="yacute" unicode="&#xfd;" horiz-adv-x="565" 
d="M32 506l133.002 0.000976562v-40c10.667 14 30.167 26.167 58.5 36.5s55.166 15.5 80.499 15.5c68.667 0 126.667 -25.667 174 -77s71 -114 71 -188c0 -73.333 -26.5 -135.833 -79.5 -187.5s-117.167 -77.5 -192.5 -77.5c-60.667 0 -116.834 19.833 -168.501 59.5
s-83.834 88.167 -96.501 145.5h166c6.66699 -13.333 19.334 -25.5 38.001 -36.5s37 -16.5 55 -16.5c20 0 38.333 5.66699 55 17s30.334 25.666 41.001 42.999h-167v116h167c-10.667 14 -24.834 25.833 -42.501 35.5s-35.5 14.5 -53.5 14.5
c-15.333 0 -31.5 -4.33301 -48.5 -13s-29.167 -17.667 -36.5 -27h-154v180z" />
    <glyph glyph-name="yacute" unicode="&#x44d;" horiz-adv-x="565" 
d="M32 506l133.002 0.000976562v-40c10.667 14 30.167 26.167 58.5 36.5s55.166 15.5 80.499 15.5c68.667 0 126.667 -25.667 174 -77s71 -114 71 -188c0 -73.333 -26.5 -135.833 -79.5 -187.5s-117.167 -77.5 -192.5 -77.5c-60.667 0 -116.834 19.833 -168.501 59.5
s-83.834 88.167 -96.501 145.5h166c6.66699 -13.333 19.334 -25.5 38.001 -36.5s37 -16.5 55 -16.5c20 0 38.333 5.66699 55 17s30.334 25.666 41.001 42.999h-167v116h167c-10.667 14 -24.834 25.833 -42.501 35.5s-35.5 14.5 -53.5 14.5
c-15.333 0 -31.5 -4.33301 -48.5 -13s-29.167 -17.667 -36.5 -27h-154v180z" />
    <glyph glyph-name="thorn" unicode="&#xfe;" horiz-adv-x="868" 
d="M30 506h269.998v-146h-52v-40h52c14.667 54.667 48.834 101.334 102.501 140.001s110.834 58 171.501 58c76.667 0 142.167 -25.833 196.5 -77.5s81.5 -114.167 81.5 -187.5s-27.167 -135.833 -81.5 -187.5s-119.833 -77.5 -196.5 -77.5
c-64 0 -122.833 21.167 -176.5 63.5s-86.167 93.166 -97.5 152.499h-52v-58h52v-146h-270v146h52v214h-52v146zM685.998 253c0 31.333 -10.667 58 -32 80s-48 33 -80 33c-30.667 0 -57 -11 -79 -33s-33 -48.667 -33 -80s10.667 -58 32 -80s48 -33 80 -33
c30.667 0 57 11 79 33s33 48.667 33 80z" />
    <glyph glyph-name="thorn" unicode="&#x44e;" horiz-adv-x="868" 
d="M30 506h269.998v-146h-52v-40h52c14.667 54.667 48.834 101.334 102.501 140.001s110.834 58 171.501 58c76.667 0 142.167 -25.833 196.5 -77.5s81.5 -114.167 81.5 -187.5s-27.167 -135.833 -81.5 -187.5s-119.833 -77.5 -196.5 -77.5
c-64 0 -122.833 21.167 -176.5 63.5s-86.167 93.166 -97.5 152.499h-52v-58h52v-146h-270v146h52v214h-52v146zM685.998 253c0 31.333 -10.667 58 -32 80s-48 33 -80 33c-30.667 0 -57 -11 -79 -33s-33 -48.667 -33 -80s10.667 -58 32 -80s48 -33 80 -33
c30.667 0 57 11 79 33s33 48.667 33 80z" />
    <glyph glyph-name="ydieresis" unicode="&#xff;" horiz-adv-x="562" 
d="M314 146v78l-184 -224h-118v146h52l70 73c-31.333 4.66699 -56.333 19.5 -75 44.5s-28 54.5 -28 88.5c0 42.667 14.667 79 44 109s65.333 45 108 45h349v-146h-52v-214h52v-146h-254v146h36zM314 296v94h-59c-14 0 -25.833 -4.5 -35.5 -13.5s-14.5 -20.167 -14.5 -33.5
c0 -12.667 4.66699 -23.667 14 -33s21.333 -14 36 -14h59z" />
    <glyph glyph-name="ydieresis" unicode="&#x44f;" horiz-adv-x="562" 
d="M314 146v78l-184 -224h-118v146h52l70 73c-31.333 4.66699 -56.333 19.5 -75 44.5s-28 54.5 -28 88.5c0 42.667 14.667 79 44 109s65.333 45 108 45h349v-146h-52v-214h52v-146h-254v146h36zM314 296v94h-59c-14 0 -25.833 -4.5 -35.5 -13.5s-14.5 -20.167 -14.5 -33.5
c0 -12.667 4.66699 -23.667 14 -33s21.333 -14 36 -14h59z" />
    <glyph glyph-name="florin" unicode="&#x192;" horiz-adv-x="330" 
d="M82 0l0.000976562 360.002h-52v146h52v47c0 37.333 15.667 68.166 47 92.499s65.333 36.5 102 36.5h81v-130h-32c-14 0 -22.833 -1.16699 -26.5 -3.5s-5.5 -9.83301 -5.5 -22.5v-20h52v-146h-52v-360c0 -58.667 -17.333 -105.334 -52 -140.001
c-40 -40 -84.333 -60 -133 -60h-50v124c19.333 0 35.666 7.33301 48.999 22s20 32.667 20 54z" />
    <glyph glyph-name="florin" unicode="&#x453;" horiz-adv-x="330" 
d="M82 0l0.000976562 360.002h-52v146h52v47c0 37.333 15.667 68.166 47 92.499s65.333 36.5 102 36.5h81v-130h-32c-14 0 -22.833 -1.16699 -26.5 -3.5s-5.5 -9.83301 -5.5 -22.5v-20h52v-146h-52v-360c0 -58.667 -17.333 -105.334 -52 -140.001
c-40 -40 -84.333 -60 -133 -60h-50v124c19.333 0 35.666 7.33301 48.999 22s20 32.667 20 54z" />
    <glyph glyph-name="endash" unicode="&#x2013;" horiz-adv-x="746" 
d="M716 186h-686v132h686v-132z" />
    <glyph glyph-name="emdash" unicode="&#x2014;" horiz-adv-x="944" 
d="M914 186h-884v132h884v-132z" />
    <glyph glyph-name="quoteleft" unicode="&#x2018;" horiz-adv-x="220" 
d="M190 682l-0.000976562 -68h-21c-12 0 -21.667 -3.66699 -29 -11s-11 -19 -11 -35v-26h61v-152h-160v152c0 42.667 11.333 76.667 34 102s51.334 38 86.001 38h40z" />
    <glyph glyph-name="quoteright" unicode="&#x2019;" horiz-adv-x="220" 
d="M30 518l0.000976562 152h160v-152c0 -42.667 -11.333 -76.667 -34 -102s-51.334 -38 -86.001 -38h-40v68h21c12 0 21.667 3.66699 29 11s11 19 11 35v26h-61z" />
    <glyph glyph-name="quotesinglbase" unicode="&#x201a;" horiz-adv-x="220" 
d="M30 0l0.000976562 152h160v-152c0 -42.667 -11.333 -76.667 -34 -102s-51.334 -38 -86.001 -38h-40v68h21c12 0 21.667 3.66699 29 11s11 19 11 35v26h-61z" />
    <glyph glyph-name="quotedblleft" unicode="&#x201c;" horiz-adv-x="438" 
d="M190 682l-0.000976562 -68h-21c-12 0 -21.667 -3.66699 -29 -11s-11 -19 -11 -35v-26h61v-152h-160v152c0 42.667 11.333 76.667 34 102s51.334 38 86.001 38h40zM407.999 682l-0.000976562 -68h-21c-12 0 -21.667 -3.66699 -29 -11s-11 -19 -11 -35v-26h61v-152h-160
v152c0 42.667 11.333 76.667 34 102s51.334 38 86.001 38h40z" />
    <glyph glyph-name="quotedblright" unicode="&#x201d;" horiz-adv-x="438" 
d="M30 518l0.000976562 152h160v-152c0 -42.667 -11.333 -76.667 -34 -102s-51.334 -38 -86.001 -38h-40v68h21c12 0 21.667 3.66699 29 11s11 19 11 35v26h-61zM248.001 518l0.000976562 152h160v-152c0 -42.667 -11.333 -76.667 -34 -102s-51.334 -38 -86.001 -38h-40v68
h21c12 0 21.667 3.66699 29 11s11 19 11 35v26h-61z" />
    <glyph glyph-name="quotedblbase" unicode="&#x201e;" horiz-adv-x="438" 
d="M30 0l0.000976562 152h160v-152c0 -42.667 -11.333 -76.667 -34 -102s-51.334 -38 -86.001 -38h-40v68h21c12 0 21.667 3.66699 29 11s11 19 11 35v26h-61zM248.001 0l0.000976562 152h160v-152c0 -42.667 -11.333 -76.667 -34 -102s-51.334 -38 -86.001 -38h-40v68h21
c12 0 21.667 3.66699 29 11s11 19 11 35v26h-61z" />
    <glyph glyph-name="dagger" unicode="&#x2020;" horiz-adv-x="410" 
d="M360 360h-72v-534h-166v534h-72v146h72v164h166v-164h72v-146z" />
    <glyph glyph-name="daggerdbl" unicode="&#x2021;" horiz-adv-x="410" 
d="M50 146h72v214h-72v146h72v164h166v-164h72v-146h-72v-214h72v-146h-72v-174h-166v174h-72v146z" />
    <glyph glyph-name="bullet" unicode="&#x2022;" horiz-adv-x="302" 
d="M272 252c0 -33.333 -12.833 -61.833 -38.5 -85.5s-53.167 -35.5 -82.5 -35.5c-36.667 0 -66 12 -88 36s-33 52.333 -33 85s12.333 61 37 85s52.667 36 84 36c32 0 60.167 -11.167 84.5 -33.5s36.5 -51.5 36.5 -87.5z" />
    <glyph glyph-name="ellipsis" unicode="&#x2026;" horiz-adv-x="696" 
d="M50 0v152h160v-152h-160zM268 0v152h160v-152h-160zM486 0v152h160v-152h-160z" />
    <glyph glyph-name="perthousand" unicode="&#x2030;" horiz-adv-x="998" 
d="M346 533c0 -41.333 -15.5 -76.5 -46.5 -105.5s-68.167 -43.5 -111.5 -43.5c-44 0 -81.333 14.333 -112 43s-46 64 -46 106c0 41.333 15.5 76.5 46.5 105.5s68.167 43.5 111.5 43.5c44 0 81.333 -14.333 112 -43s46 -64 46 -106zM253 533
c0 16.667 -6.33301 31.334 -19 44.001s-28 19 -46 19s-33.333 -6 -46 -18s-19 -27 -19 -45c0 -16.667 6.33301 -31.334 19 -44.001s28 -19 46 -19s33.333 6 46 18s19 27 19 45zM621 137c0 -41.333 -15.5 -76.5 -46.5 -105.5s-68.167 -43.5 -111.5 -43.5
c-44 0 -81.333 14.333 -112 43s-46 64 -46 106c0 41.333 15.5 76.5 46.5 105.5s68.167 43.5 111.5 43.5c44 0 81.333 -14.333 112 -43s46 -64 46 -106zM528 137c0 16.667 -6.33301 31.334 -19 44.001s-28 19 -46 19s-33.333 -6 -46 -18s-19 -27 -19 -45
c0 -16.667 6.33301 -31.334 19 -44.001s28 -19 46 -19s33.333 6 46 18s19 27 19 45zM968 137c0 -41.333 -15.5 -76.5 -46.5 -105.5s-68.167 -43.5 -111.5 -43.5c-44 0 -81.333 14.333 -112 43s-46 64 -46 106c0 41.333 15.5 76.5 46.5 105.5s68.167 43.5 111.5 43.5
c44 0 81.333 -14.333 112 -43s46 -64 46 -106zM875 137c0 16.667 -6.33301 31.334 -19 44.001s-28 19 -46 19s-33.333 -6 -46 -18s-19 -27 -19 -45c0 -16.667 6.33301 -31.334 19 -44.001s28 -19 46 -19s33.333 6 46 18s19 27 19 45zM509 631l74 -61l-443 -530l-74 62z" />
    <glyph glyph-name="guilsinglleft" unicode="&#x2039;" horiz-adv-x="190" 
d="M160 -12l-130 120v128l130 120v-140l-44 -44l44 -44v-140z" />
    <glyph glyph-name="guilsinglright" unicode="&#x203a;" horiz-adv-x="190" 
d="M30 -12v140l44 44l-44 44v140l130 -120v-128z" />
    <glyph glyph-name="trademark" unicode="&#x2122;" horiz-adv-x="974" 
d="M30 670h340v-154h-84v57h-33v-229h43v-90h-191v90h42v229h-33v-57h-84v154zM412 670h185l79 -242h4l79 242h185v-90h-42v-236h42v-90h-181v90h39v154l-84 -244h-79l-82 244l-3 -154h40v-90h-182v90h42v236h-42v90z" />
    <glyph glyph-name=".null" horiz-adv-x="0" 
 />
    <glyph glyph-name="nonmarkingreturn" horiz-adv-x="320" 
 />
    </font>
</defs>
</svg>
